<mxfile host="app.diagrams.net" modified="2023-10-27T21:40:16.728Z" agent="Mozilla/5.0 (Windows NT 10.0; Win64; x64) AppleWebKit/537.36 (KHTML, like Gecko) Chrome/118.0.0.0 Safari/537.36" etag="hWoYnebqfkW-tdMqrVnq" version="22.0.8" type="device" pages="2">
  <diagram id="kHtWVmZTN6cLjGPxCSwp" name="1 oldal">
    <mxGraphModel dx="1395" dy="693" grid="1" gridSize="10" guides="1" tooltips="1" connect="1" arrows="1" fold="1" page="1" pageScale="1" pageWidth="20000" pageHeight="22000" background="#ffffff" math="0" shadow="0">
      <root>
        <mxCell id="0" />
        <mxCell id="1" parent="0" />
        <mxCell id="AoqFfh_UuYeJhRVO-wlk-1" value="&lt;span style=&quot;font-size: 14px;&quot;&gt;Világbajnokság_DLWGQZ&lt;/span&gt;" style="ellipse;shape=doubleEllipse;margin=3;whiteSpace=wrap;html=1;align=center;" parent="1" vertex="1">
          <mxGeometry x="4500" y="160" width="180" height="60" as="geometry" />
        </mxCell>
        <mxCell id="AoqFfh_UuYeJhRVO-wlk-2" value="&lt;font style=&quot;font-size: 14px;&quot;&gt;Helyszín&lt;/font&gt;" style="ellipse;shape=doubleEllipse;margin=3;whiteSpace=wrap;html=1;align=center;" parent="1" vertex="1">
          <mxGeometry x="5830" y="360" width="180" height="60" as="geometry" />
        </mxCell>
        <mxCell id="AoqFfh_UuYeJhRVO-wlk-3" value="&lt;span style=&quot;font-size: 14px;&quot;&gt;Mérkőzés&lt;/span&gt;" style="ellipse;shape=doubleEllipse;margin=3;whiteSpace=wrap;html=1;align=center;" parent="1" vertex="1">
          <mxGeometry x="5000" y="360" width="180" height="60" as="geometry" />
        </mxCell>
        <mxCell id="AoqFfh_UuYeJhRVO-wlk-4" value="&lt;span style=&quot;font-size: 14px;&quot;&gt;Típus&lt;/span&gt;" style="ellipse;shape=doubleEllipse;margin=3;whiteSpace=wrap;html=1;align=center;" parent="1" vertex="1">
          <mxGeometry x="6480" y="360" width="180" height="60" as="geometry" />
        </mxCell>
        <mxCell id="AoqFfh_UuYeJhRVO-wlk-5" value="&lt;span style=&quot;font-size: 14px;&quot;&gt;Logó&lt;/span&gt;" style="ellipse;shape=doubleEllipse;margin=3;whiteSpace=wrap;html=1;align=center;" parent="1" vertex="1">
          <mxGeometry x="2185" y="360" width="180" height="60" as="geometry" />
        </mxCell>
        <mxCell id="AoqFfh_UuYeJhRVO-wlk-6" value="&lt;font style=&quot;font-size: 14px;&quot;&gt;Csapat&lt;/font&gt;" style="ellipse;shape=doubleEllipse;margin=3;whiteSpace=wrap;html=1;align=center;" parent="1" vertex="1">
          <mxGeometry x="1370" y="360" width="180" height="60" as="geometry" />
        </mxCell>
        <mxCell id="AoqFfh_UuYeJhRVO-wlk-7" value="&lt;span style=&quot;font-size: 14px;&quot;&gt;Csoport&lt;/span&gt;" style="ellipse;shape=doubleEllipse;margin=3;whiteSpace=wrap;html=1;align=center;" parent="1" vertex="1">
          <mxGeometry x="2940" y="360" width="180" height="60" as="geometry" />
        </mxCell>
        <mxCell id="AoqFfh_UuYeJhRVO-wlk-8" value="&lt;span style=&quot;font-size: 14px;&quot;&gt;Labdarúgó&lt;/span&gt;" style="ellipse;shape=doubleEllipse;margin=3;whiteSpace=wrap;html=1;align=center;" parent="1" vertex="1">
          <mxGeometry x="3885" y="360" width="180" height="60" as="geometry" />
        </mxCell>
        <mxCell id="AoqFfh_UuYeJhRVO-wlk-12" value="&lt;u&gt;&lt;font style=&quot;font-size: 14px;&quot;&gt;Lkód&lt;/font&gt;&lt;/u&gt;" style="shape=rhombus;perimeter=rhombusPerimeter;whiteSpace=wrap;html=1;align=center;" parent="1" vertex="1">
          <mxGeometry x="3350" y="480" width="120" height="100" as="geometry" />
        </mxCell>
        <mxCell id="AoqFfh_UuYeJhRVO-wlk-13" value="&lt;span style=&quot;font-size: 14px;&quot;&gt;Gól&lt;/span&gt;" style="ellipse;whiteSpace=wrap;html=1;align=center;" parent="1" vertex="1">
          <mxGeometry x="3885" y="480" width="180" height="60" as="geometry" />
        </mxCell>
        <mxCell id="AoqFfh_UuYeJhRVO-wlk-15" value="&lt;u&gt;LOGÓkód&lt;/u&gt;" style="shape=rhombus;perimeter=rhombusPerimeter;whiteSpace=wrap;html=1;align=center;" parent="1" vertex="1">
          <mxGeometry x="1980" y="480" width="120" height="100" as="geometry" />
        </mxCell>
        <mxCell id="AoqFfh_UuYeJhRVO-wlk-16" value="&lt;u&gt;CSOPkód&lt;/u&gt;" style="shape=rhombus;perimeter=rhombusPerimeter;whiteSpace=wrap;html=1;align=center;" parent="1" vertex="1">
          <mxGeometry x="2810" y="477.5" width="120" height="100" as="geometry" />
        </mxCell>
        <mxCell id="AoqFfh_UuYeJhRVO-wlk-17" value="&lt;u&gt;Mkód&lt;/u&gt;" style="shape=rhombus;perimeter=rhombusPerimeter;whiteSpace=wrap;html=1;align=center;" parent="1" vertex="1">
          <mxGeometry x="4630" y="480" width="120" height="100" as="geometry" />
        </mxCell>
        <mxCell id="AoqFfh_UuYeJhRVO-wlk-18" value="&lt;u&gt;Tkód&lt;/u&gt;" style="shape=rhombus;perimeter=rhombusPerimeter;whiteSpace=wrap;html=1;align=center;" parent="1" vertex="1">
          <mxGeometry x="6380" y="477.5" width="120" height="100" as="geometry" />
        </mxCell>
        <mxCell id="AoqFfh_UuYeJhRVO-wlk-19" value="&lt;u&gt;CSkód&lt;/u&gt;" style="shape=rhombus;perimeter=rhombusPerimeter;whiteSpace=wrap;html=1;align=center;" parent="1" vertex="1">
          <mxGeometry x="820" y="480" width="120" height="100" as="geometry" />
        </mxCell>
        <mxCell id="AoqFfh_UuYeJhRVO-wlk-20" value="&lt;u&gt;Hkód&lt;/u&gt;" style="shape=rhombus;perimeter=rhombusPerimeter;whiteSpace=wrap;html=1;align=center;" parent="1" vertex="1">
          <mxGeometry x="5560" y="480" width="120" height="100" as="geometry" />
        </mxCell>
        <mxCell id="AoqFfh_UuYeJhRVO-wlk-21" value="&lt;span style=&quot;font-size: 14px;&quot;&gt;Mérkőzik&lt;/span&gt;" style="ellipse;shape=doubleEllipse;margin=3;whiteSpace=wrap;html=1;align=center;" parent="1" vertex="1">
          <mxGeometry x="7080" y="360" width="180" height="60" as="geometry" />
        </mxCell>
        <mxCell id="AoqFfh_UuYeJhRVO-wlk-22" value="&lt;span style=&quot;font-size: 14px;&quot;&gt;Mezszám&lt;/span&gt;" style="ellipse;whiteSpace=wrap;html=1;align=center;" parent="1" vertex="1">
          <mxGeometry x="4070" y="480" width="180" height="60" as="geometry" />
        </mxCell>
        <mxCell id="AoqFfh_UuYeJhRVO-wlk-23" value="&lt;span style=&quot;font-size: 14px;&quot;&gt;Szülidő&lt;/span&gt;" style="ellipse;whiteSpace=wrap;html=1;align=center;" parent="1" vertex="1">
          <mxGeometry x="4265" y="480" width="180" height="60" as="geometry" />
        </mxCell>
        <mxCell id="AoqFfh_UuYeJhRVO-wlk-24" value="&lt;span style=&quot;font-size: 14px;&quot;&gt;Név&lt;/span&gt;" style="ellipse;whiteSpace=wrap;html=1;align=center;" parent="1" vertex="1">
          <mxGeometry x="3690" y="480" width="180" height="60" as="geometry" />
        </mxCell>
        <mxCell id="AoqFfh_UuYeJhRVO-wlk-25" value="&lt;span style=&quot;font-size: 14px;&quot;&gt;Keresztnév&lt;/span&gt;" style="ellipse;whiteSpace=wrap;html=1;align=center;" parent="1" vertex="1">
          <mxGeometry x="3600" y="640" width="180" height="60" as="geometry" />
        </mxCell>
        <mxCell id="AoqFfh_UuYeJhRVO-wlk-26" value="&lt;span style=&quot;font-size: 14px;&quot;&gt;Vezetőedző&lt;/span&gt;" style="ellipse;whiteSpace=wrap;html=1;align=center;" parent="1" vertex="1">
          <mxGeometry x="970" y="480" width="180" height="60" as="geometry" />
        </mxCell>
        <mxCell id="AoqFfh_UuYeJhRVO-wlk-27" value="&lt;span style=&quot;font-size: 14px;&quot;&gt;Név&lt;/span&gt;" style="ellipse;whiteSpace=wrap;html=1;align=center;" parent="1" vertex="1">
          <mxGeometry x="1170" y="480" width="180" height="60" as="geometry" />
        </mxCell>
        <mxCell id="AoqFfh_UuYeJhRVO-wlk-28" value="&lt;span style=&quot;font-size: 14px;&quot;&gt;Stadion&lt;/span&gt;" style="ellipse;whiteSpace=wrap;html=1;align=center;" parent="1" vertex="1">
          <mxGeometry x="5830" y="480" width="180" height="60" as="geometry" />
        </mxCell>
        <mxCell id="AoqFfh_UuYeJhRVO-wlk-29" value="&lt;span style=&quot;font-size: 14px;&quot;&gt;Név&lt;/span&gt;" style="ellipse;whiteSpace=wrap;html=1;align=center;" parent="1" vertex="1">
          <mxGeometry x="5640" y="640" width="180" height="60" as="geometry" />
        </mxCell>
        <mxCell id="AoqFfh_UuYeJhRVO-wlk-31" value="&lt;span style=&quot;font-size: 14px;&quot;&gt;Jelölés&lt;/span&gt;" style="ellipse;whiteSpace=wrap;html=1;align=center;" parent="1" vertex="1">
          <mxGeometry x="3070" y="477.5" width="180" height="60" as="geometry" />
        </mxCell>
        <mxCell id="AoqFfh_UuYeJhRVO-wlk-32" value="&lt;span style=&quot;font-size: 14px;&quot;&gt;Tulajdonos&lt;/span&gt;" style="ellipse;whiteSpace=wrap;html=1;align=center;" parent="1" vertex="1">
          <mxGeometry x="6020" y="637.5" width="180" height="60" as="geometry" />
        </mxCell>
        <mxCell id="AoqFfh_UuYeJhRVO-wlk-33" value="&lt;span style=&quot;font-size: 14px;&quot;&gt;Név&lt;/span&gt;" style="ellipse;whiteSpace=wrap;html=1;align=center;" parent="1" vertex="1">
          <mxGeometry x="6590" y="477.5" width="180" height="60" as="geometry" />
        </mxCell>
        <mxCell id="AoqFfh_UuYeJhRVO-wlk-46" value="&lt;font style=&quot;font-size: 14px;&quot;&gt;Vezetéknév&lt;/font&gt;" style="ellipse;whiteSpace=wrap;html=1;align=center;" parent="1" vertex="1">
          <mxGeometry x="3795" y="640" width="180" height="60" as="geometry" />
        </mxCell>
        <mxCell id="AoqFfh_UuYeJhRVO-wlk-47" value="&lt;span style=&quot;font-size: 14px;&quot;&gt;Tervező&lt;/span&gt;" style="ellipse;whiteSpace=wrap;html=1;align=center;" parent="1" vertex="1">
          <mxGeometry x="2410" y="480" width="180" height="60" as="geometry" />
        </mxCell>
        <mxCell id="AoqFfh_UuYeJhRVO-wlk-48" value="&lt;span style=&quot;font-size: 14px;&quot;&gt;Város&lt;/span&gt;" style="ellipse;whiteSpace=wrap;html=1;align=center;" parent="1" vertex="1">
          <mxGeometry x="6130" y="480" width="180" height="60" as="geometry" />
        </mxCell>
        <mxCell id="AoqFfh_UuYeJhRVO-wlk-49" value="&lt;span style=&quot;font-size: 14px;&quot;&gt;Dátum&lt;/span&gt;" style="ellipse;whiteSpace=wrap;html=1;align=center;" parent="1" vertex="1">
          <mxGeometry x="7450" y="480" width="180" height="60" as="geometry" />
        </mxCell>
        <mxCell id="AoqFfh_UuYeJhRVO-wlk-50" value="&lt;span style=&quot;font-size: 14px;&quot;&gt;Csapat1Gólok&lt;/span&gt;" style="ellipse;whiteSpace=wrap;html=1;align=center;" parent="1" vertex="1">
          <mxGeometry x="4780" y="480" width="180" height="60" as="geometry" />
        </mxCell>
        <mxCell id="AoqFfh_UuYeJhRVO-wlk-51" value="&lt;span style=&quot;font-size: 14px;&quot;&gt;Csapat2Gólok&lt;/span&gt;" style="ellipse;whiteSpace=wrap;html=1;align=center;" parent="1" vertex="1">
          <mxGeometry x="5000" y="480" width="180" height="60" as="geometry" />
        </mxCell>
        <mxCell id="AoqFfh_UuYeJhRVO-wlk-54" value="&lt;span style=&quot;font-size: 14px;&quot;&gt;Poszt&lt;/span&gt;" style="ellipse;shape=doubleEllipse;margin=3;whiteSpace=wrap;html=1;align=center;" parent="1" vertex="1">
          <mxGeometry x="3490" y="480" width="180" height="60" as="geometry" />
        </mxCell>
        <mxCell id="AoqFfh_UuYeJhRVO-wlk-57" value="&lt;span style=&quot;font-size: 14px;&quot;&gt;Színek&lt;/span&gt;" style="ellipse;shape=doubleEllipse;margin=3;whiteSpace=wrap;html=1;align=center;" parent="1" vertex="1">
          <mxGeometry x="2185" y="480" width="180" height="60" as="geometry" />
        </mxCell>
        <mxCell id="AoqFfh_UuYeJhRVO-wlk-59" value="" style="endArrow=none;html=1;rounded=0;exitX=0.5;exitY=0;exitDx=0;exitDy=0;entryX=0.5;entryY=1;entryDx=0;entryDy=0;" parent="1" source="AoqFfh_UuYeJhRVO-wlk-25" target="AoqFfh_UuYeJhRVO-wlk-24" edge="1">
          <mxGeometry relative="1" as="geometry">
            <mxPoint x="3750" y="570" as="sourcePoint" />
            <mxPoint x="3910" y="570" as="targetPoint" />
          </mxGeometry>
        </mxCell>
        <mxCell id="AoqFfh_UuYeJhRVO-wlk-60" value="" style="endArrow=none;html=1;rounded=0;exitX=0.5;exitY=1;exitDx=0;exitDy=0;entryX=0.5;entryY=0;entryDx=0;entryDy=0;" parent="1" source="AoqFfh_UuYeJhRVO-wlk-24" target="AoqFfh_UuYeJhRVO-wlk-46" edge="1">
          <mxGeometry relative="1" as="geometry">
            <mxPoint x="3850" y="600" as="sourcePoint" />
            <mxPoint x="3980" y="510" as="targetPoint" />
          </mxGeometry>
        </mxCell>
        <mxCell id="AoqFfh_UuYeJhRVO-wlk-61" value="&lt;font style=&quot;font-size: 14px;&quot;&gt;CSkód&lt;/font&gt;" style="shape=rhombus;perimeter=rhombusPerimeter;whiteSpace=wrap;html=1;align=center;" parent="1" vertex="1">
          <mxGeometry x="4460" y="480" width="120" height="100" as="geometry" />
        </mxCell>
        <mxCell id="AoqFfh_UuYeJhRVO-wlk-62" value="" style="endArrow=none;html=1;rounded=0;dashed=1;" parent="1" edge="1">
          <mxGeometry relative="1" as="geometry">
            <mxPoint x="4500" y="540" as="sourcePoint" />
            <mxPoint x="4540" y="540" as="targetPoint" />
          </mxGeometry>
        </mxCell>
        <mxCell id="AoqFfh_UuYeJhRVO-wlk-63" value="" style="rounded=0;whiteSpace=wrap;html=1;" parent="1" vertex="1">
          <mxGeometry x="3565" y="580" width="30" height="60" as="geometry" />
        </mxCell>
        <mxCell id="AoqFfh_UuYeJhRVO-wlk-64" value="" style="rounded=0;whiteSpace=wrap;html=1;" parent="1" vertex="1">
          <mxGeometry x="3675" y="740" width="30" height="60" as="geometry" />
        </mxCell>
        <mxCell id="AoqFfh_UuYeJhRVO-wlk-65" value="" style="rounded=0;whiteSpace=wrap;html=1;" parent="1" vertex="1">
          <mxGeometry x="3870" y="740" width="30" height="60" as="geometry" />
        </mxCell>
        <mxCell id="AoqFfh_UuYeJhRVO-wlk-66" value="" style="rounded=0;whiteSpace=wrap;html=1;" parent="1" vertex="1">
          <mxGeometry x="3960" y="580" width="30" height="60" as="geometry" />
        </mxCell>
        <mxCell id="AoqFfh_UuYeJhRVO-wlk-67" value="" style="rounded=0;whiteSpace=wrap;html=1;" parent="1" vertex="1">
          <mxGeometry x="4145" y="580" width="30" height="60" as="geometry" />
        </mxCell>
        <mxCell id="AoqFfh_UuYeJhRVO-wlk-72" value="" style="rounded=0;whiteSpace=wrap;html=1;" parent="1" vertex="1">
          <mxGeometry x="4340" y="580" width="30" height="60" as="geometry" />
        </mxCell>
        <mxCell id="AoqFfh_UuYeJhRVO-wlk-78" value="" style="rounded=0;whiteSpace=wrap;html=1;" parent="1" vertex="1">
          <mxGeometry x="3145" y="577.5" width="30" height="60" as="geometry" />
        </mxCell>
        <mxCell id="AoqFfh_UuYeJhRVO-wlk-79" value="" style="rounded=0;whiteSpace=wrap;html=1;" parent="1" vertex="1">
          <mxGeometry x="2485" y="580" width="30" height="60" as="geometry" />
        </mxCell>
        <mxCell id="AoqFfh_UuYeJhRVO-wlk-84" value="" style="endArrow=none;html=1;rounded=0;entryX=0.5;entryY=1;entryDx=0;entryDy=0;exitX=0.5;exitY=0;exitDx=0;exitDy=0;" parent="1" source="AoqFfh_UuYeJhRVO-wlk-63" target="AoqFfh_UuYeJhRVO-wlk-54" edge="1">
          <mxGeometry relative="1" as="geometry">
            <mxPoint x="3370" y="649.26" as="sourcePoint" />
            <mxPoint x="3560" y="560" as="targetPoint" />
          </mxGeometry>
        </mxCell>
        <mxCell id="AoqFfh_UuYeJhRVO-wlk-85" value="" style="endArrow=none;html=1;rounded=0;entryX=0.5;entryY=1;entryDx=0;entryDy=0;exitX=0.5;exitY=0;exitDx=0;exitDy=0;" parent="1" source="AoqFfh_UuYeJhRVO-wlk-64" target="AoqFfh_UuYeJhRVO-wlk-25" edge="1">
          <mxGeometry relative="1" as="geometry">
            <mxPoint x="3510" y="720" as="sourcePoint" />
            <mxPoint x="3670" y="720" as="targetPoint" />
          </mxGeometry>
        </mxCell>
        <mxCell id="AoqFfh_UuYeJhRVO-wlk-86" value="" style="endArrow=none;html=1;rounded=0;exitX=0.5;exitY=1;exitDx=0;exitDy=0;entryX=0.5;entryY=0;entryDx=0;entryDy=0;" parent="1" source="AoqFfh_UuYeJhRVO-wlk-13" target="AoqFfh_UuYeJhRVO-wlk-66" edge="1">
          <mxGeometry relative="1" as="geometry">
            <mxPoint x="3990" y="679.3800000000001" as="sourcePoint" />
            <mxPoint x="4150" y="679.3800000000001" as="targetPoint" />
          </mxGeometry>
        </mxCell>
        <mxCell id="AoqFfh_UuYeJhRVO-wlk-87" value="" style="endArrow=none;html=1;rounded=0;exitX=0.5;exitY=1;exitDx=0;exitDy=0;entryX=0.5;entryY=0;entryDx=0;entryDy=0;" parent="1" source="AoqFfh_UuYeJhRVO-wlk-22" target="AoqFfh_UuYeJhRVO-wlk-67" edge="1">
          <mxGeometry relative="1" as="geometry">
            <mxPoint x="4030" y="669.3800000000001" as="sourcePoint" />
            <mxPoint x="4190" y="669.3800000000001" as="targetPoint" />
          </mxGeometry>
        </mxCell>
        <mxCell id="AoqFfh_UuYeJhRVO-wlk-88" value="" style="endArrow=none;html=1;rounded=0;entryX=0;entryY=0.5;entryDx=0;entryDy=0;exitX=0.5;exitY=0;exitDx=0;exitDy=0;" parent="1" source="AoqFfh_UuYeJhRVO-wlk-12" target="AoqFfh_UuYeJhRVO-wlk-8" edge="1">
          <mxGeometry relative="1" as="geometry">
            <mxPoint x="3675" y="380" as="sourcePoint" />
            <mxPoint x="3835" y="380" as="targetPoint" />
          </mxGeometry>
        </mxCell>
        <mxCell id="AoqFfh_UuYeJhRVO-wlk-89" value="" style="endArrow=none;html=1;rounded=0;exitX=0.5;exitY=0;exitDx=0;exitDy=0;entryX=0.037;entryY=0.687;entryDx=0;entryDy=0;entryPerimeter=0;" parent="1" source="AoqFfh_UuYeJhRVO-wlk-54" target="AoqFfh_UuYeJhRVO-wlk-8" edge="1">
          <mxGeometry relative="1" as="geometry">
            <mxPoint x="3710" y="430" as="sourcePoint" />
            <mxPoint x="3870" y="430" as="targetPoint" />
          </mxGeometry>
        </mxCell>
        <mxCell id="AoqFfh_UuYeJhRVO-wlk-90" value="" style="endArrow=none;html=1;rounded=0;exitX=1;exitY=0.5;exitDx=0;exitDy=0;entryX=0.5;entryY=0;entryDx=0;entryDy=0;" parent="1" source="AoqFfh_UuYeJhRVO-wlk-3" target="OodCGgt8oWpduaX26nYI-6" edge="1">
          <mxGeometry relative="1" as="geometry">
            <mxPoint x="5240" y="439.9999999999999" as="sourcePoint" />
            <mxPoint x="5400" y="439.9999999999999" as="targetPoint" />
          </mxGeometry>
        </mxCell>
        <mxCell id="AoqFfh_UuYeJhRVO-wlk-91" value="" style="endArrow=none;html=1;rounded=0;entryX=0.5;entryY=0;entryDx=0;entryDy=0;exitX=1;exitY=0.5;exitDx=0;exitDy=0;" parent="1" source="AoqFfh_UuYeJhRVO-wlk-8" target="AoqFfh_UuYeJhRVO-wlk-61" edge="1">
          <mxGeometry relative="1" as="geometry">
            <mxPoint x="4275" y="409.63" as="sourcePoint" />
            <mxPoint x="4435" y="409.63" as="targetPoint" />
          </mxGeometry>
        </mxCell>
        <mxCell id="AoqFfh_UuYeJhRVO-wlk-92" value="" style="endArrow=none;html=1;rounded=0;exitX=0.931;exitY=0.748;exitDx=0;exitDy=0;exitPerimeter=0;entryX=0.5;entryY=0;entryDx=0;entryDy=0;" parent="1" source="AoqFfh_UuYeJhRVO-wlk-8" target="AoqFfh_UuYeJhRVO-wlk-23" edge="1">
          <mxGeometry relative="1" as="geometry">
            <mxPoint x="4250" y="430" as="sourcePoint" />
            <mxPoint x="4410" y="430" as="targetPoint" />
          </mxGeometry>
        </mxCell>
        <mxCell id="AoqFfh_UuYeJhRVO-wlk-93" value="" style="endArrow=none;html=1;rounded=0;exitX=0.5;exitY=1;exitDx=0;exitDy=0;entryX=0.5;entryY=0;entryDx=0;entryDy=0;" parent="1" source="AoqFfh_UuYeJhRVO-wlk-23" target="AoqFfh_UuYeJhRVO-wlk-72" edge="1">
          <mxGeometry relative="1" as="geometry">
            <mxPoint x="4190" y="609.69" as="sourcePoint" />
            <mxPoint x="4350" y="609.69" as="targetPoint" />
          </mxGeometry>
        </mxCell>
        <mxCell id="AoqFfh_UuYeJhRVO-wlk-94" value="" style="endArrow=none;html=1;rounded=0;entryX=0.5;entryY=0;entryDx=0;entryDy=0;exitX=1;exitY=1;exitDx=0;exitDy=0;" parent="1" source="AoqFfh_UuYeJhRVO-wlk-8" target="AoqFfh_UuYeJhRVO-wlk-22" edge="1">
          <mxGeometry relative="1" as="geometry">
            <mxPoint x="4130" y="430" as="sourcePoint" />
            <mxPoint x="4290" y="430" as="targetPoint" />
          </mxGeometry>
        </mxCell>
        <mxCell id="AoqFfh_UuYeJhRVO-wlk-95" value="" style="endArrow=none;html=1;rounded=0;exitX=0.5;exitY=1;exitDx=0;exitDy=0;entryX=0.5;entryY=0;entryDx=0;entryDy=0;" parent="1" source="AoqFfh_UuYeJhRVO-wlk-8" target="AoqFfh_UuYeJhRVO-wlk-13" edge="1">
          <mxGeometry relative="1" as="geometry">
            <mxPoint x="3930" y="439.38" as="sourcePoint" />
            <mxPoint x="4090" y="439.38" as="targetPoint" />
          </mxGeometry>
        </mxCell>
        <mxCell id="AoqFfh_UuYeJhRVO-wlk-96" value="" style="endArrow=none;html=1;rounded=0;entryX=0;entryY=1;entryDx=0;entryDy=0;exitX=0.5;exitY=0;exitDx=0;exitDy=0;" parent="1" source="AoqFfh_UuYeJhRVO-wlk-24" target="AoqFfh_UuYeJhRVO-wlk-8" edge="1">
          <mxGeometry relative="1" as="geometry">
            <mxPoint x="3760" y="440" as="sourcePoint" />
            <mxPoint x="3920" y="440" as="targetPoint" />
          </mxGeometry>
        </mxCell>
        <mxCell id="AoqFfh_UuYeJhRVO-wlk-97" value="" style="endArrow=none;html=1;rounded=0;exitX=0.5;exitY=1;exitDx=0;exitDy=0;entryX=0.5;entryY=0;entryDx=0;entryDy=0;" parent="1" source="AoqFfh_UuYeJhRVO-wlk-3" target="AoqFfh_UuYeJhRVO-wlk-51" edge="1">
          <mxGeometry relative="1" as="geometry">
            <mxPoint x="4787.5" y="751" as="sourcePoint" />
            <mxPoint x="4947.5" y="751" as="targetPoint" />
          </mxGeometry>
        </mxCell>
        <mxCell id="AoqFfh_UuYeJhRVO-wlk-112" value="" style="endArrow=none;html=1;rounded=0;exitX=0.5;exitY=1;exitDx=0;exitDy=0;entryX=0.5;entryY=0;entryDx=0;entryDy=0;" parent="1" source="AoqFfh_UuYeJhRVO-wlk-46" target="AoqFfh_UuYeJhRVO-wlk-65" edge="1">
          <mxGeometry relative="1" as="geometry">
            <mxPoint x="3760" y="850" as="sourcePoint" />
            <mxPoint x="3920" y="850" as="targetPoint" />
          </mxGeometry>
        </mxCell>
        <mxCell id="AoqFfh_UuYeJhRVO-wlk-113" value="" style="endArrow=none;html=1;rounded=0;exitX=0.5;exitY=1;exitDx=0;exitDy=0;entryX=0.5;entryY=0;entryDx=0;entryDy=0;" parent="1" source="AoqFfh_UuYeJhRVO-wlk-26" target="AoqFfh_UuYeJhRVO-wlk-176" edge="1">
          <mxGeometry relative="1" as="geometry">
            <mxPoint x="1110" y="639.4300000000001" as="sourcePoint" />
            <mxPoint x="1270" y="639.4300000000001" as="targetPoint" />
          </mxGeometry>
        </mxCell>
        <mxCell id="AoqFfh_UuYeJhRVO-wlk-114" value="" style="endArrow=none;html=1;rounded=0;exitX=0.5;exitY=1;exitDx=0;exitDy=0;entryX=0.5;entryY=0;entryDx=0;entryDy=0;" parent="1" source="AoqFfh_UuYeJhRVO-wlk-27" target="AoqFfh_UuYeJhRVO-wlk-174" edge="1">
          <mxGeometry relative="1" as="geometry">
            <mxPoint x="1100" y="609.8" as="sourcePoint" />
            <mxPoint x="1260" y="609.8" as="targetPoint" />
          </mxGeometry>
        </mxCell>
        <mxCell id="AoqFfh_UuYeJhRVO-wlk-115" value="" style="endArrow=none;html=1;rounded=0;entryX=0.012;entryY=0.619;entryDx=0;entryDy=0;entryPerimeter=0;exitX=0.5;exitY=0;exitDx=0;exitDy=0;" parent="1" source="AoqFfh_UuYeJhRVO-wlk-26" target="AoqFfh_UuYeJhRVO-wlk-6" edge="1">
          <mxGeometry relative="1" as="geometry">
            <mxPoint x="1160" y="460" as="sourcePoint" />
            <mxPoint x="1320" y="460" as="targetPoint" />
          </mxGeometry>
        </mxCell>
        <mxCell id="AoqFfh_UuYeJhRVO-wlk-116" value="" style="endArrow=none;html=1;rounded=0;exitX=0.5;exitY=0;exitDx=0;exitDy=0;entryX=0;entryY=1;entryDx=0;entryDy=0;" parent="1" source="AoqFfh_UuYeJhRVO-wlk-27" target="AoqFfh_UuYeJhRVO-wlk-6" edge="1">
          <mxGeometry relative="1" as="geometry">
            <mxPoint x="1370" y="460" as="sourcePoint" />
            <mxPoint x="1530" y="460" as="targetPoint" />
          </mxGeometry>
        </mxCell>
        <mxCell id="AoqFfh_UuYeJhRVO-wlk-118" value="" style="endArrow=none;html=1;rounded=0;exitX=0.959;exitY=0.694;exitDx=0;exitDy=0;exitPerimeter=0;entryX=0.5;entryY=0;entryDx=0;entryDy=0;" parent="1" source="AoqFfh_UuYeJhRVO-wlk-6" target="5UzdJfE_4xP-qqBcOs_D-2" edge="1">
          <mxGeometry relative="1" as="geometry">
            <mxPoint x="1640" y="450" as="sourcePoint" />
            <mxPoint x="1800" y="450" as="targetPoint" />
          </mxGeometry>
        </mxCell>
        <mxCell id="AoqFfh_UuYeJhRVO-wlk-119" value="" style="endArrow=none;html=1;rounded=0;exitX=1;exitY=0.5;exitDx=0;exitDy=0;entryX=0.5;entryY=0;entryDx=0;entryDy=0;" parent="1" source="AoqFfh_UuYeJhRVO-wlk-6" target="vd_U37cMmbOEggnSm3mW-63" edge="1">
          <mxGeometry relative="1" as="geometry">
            <mxPoint x="1710" y="430" as="sourcePoint" />
            <mxPoint x="1762.5" y="480" as="targetPoint" />
          </mxGeometry>
        </mxCell>
        <mxCell id="AoqFfh_UuYeJhRVO-wlk-120" value="" style="endArrow=none;html=1;rounded=0;exitX=0.5;exitY=0;exitDx=0;exitDy=0;entryX=0;entryY=0.5;entryDx=0;entryDy=0;" parent="1" source="AoqFfh_UuYeJhRVO-wlk-15" target="AoqFfh_UuYeJhRVO-wlk-5" edge="1">
          <mxGeometry relative="1" as="geometry">
            <mxPoint x="2040" y="430" as="sourcePoint" />
            <mxPoint x="2200" y="430" as="targetPoint" />
          </mxGeometry>
        </mxCell>
        <mxCell id="AoqFfh_UuYeJhRVO-wlk-121" value="" style="endArrow=none;html=1;rounded=0;entryX=0.5;entryY=1;entryDx=0;entryDy=0;exitX=0.5;exitY=0;exitDx=0;exitDy=0;" parent="1" source="AoqFfh_UuYeJhRVO-wlk-57" target="AoqFfh_UuYeJhRVO-wlk-5" edge="1">
          <mxGeometry relative="1" as="geometry">
            <mxPoint x="2140" y="639" as="sourcePoint" />
            <mxPoint x="2300" y="639" as="targetPoint" />
          </mxGeometry>
        </mxCell>
        <mxCell id="AoqFfh_UuYeJhRVO-wlk-122" value="" style="endArrow=none;html=1;rounded=0;exitX=1;exitY=0.5;exitDx=0;exitDy=0;entryX=0.5;entryY=0;entryDx=0;entryDy=0;" parent="1" source="AoqFfh_UuYeJhRVO-wlk-5" target="AoqFfh_UuYeJhRVO-wlk-47" edge="1">
          <mxGeometry relative="1" as="geometry">
            <mxPoint x="2375" y="460" as="sourcePoint" />
            <mxPoint x="2535" y="460" as="targetPoint" />
          </mxGeometry>
        </mxCell>
        <mxCell id="AoqFfh_UuYeJhRVO-wlk-123" value="" style="endArrow=none;html=1;rounded=0;exitX=0.5;exitY=1;exitDx=0;exitDy=0;entryX=0.5;entryY=0;entryDx=0;entryDy=0;" parent="1" source="AoqFfh_UuYeJhRVO-wlk-31" target="AoqFfh_UuYeJhRVO-wlk-78" edge="1">
          <mxGeometry relative="1" as="geometry">
            <mxPoint x="2880" y="617" as="sourcePoint" />
            <mxPoint x="3040" y="617" as="targetPoint" />
          </mxGeometry>
        </mxCell>
        <mxCell id="AoqFfh_UuYeJhRVO-wlk-124" value="" style="endArrow=none;html=1;rounded=0;entryX=0.5;entryY=0;entryDx=0;entryDy=0;exitX=0;exitY=0.5;exitDx=0;exitDy=0;" parent="1" source="AoqFfh_UuYeJhRVO-wlk-2" target="AoqFfh_UuYeJhRVO-wlk-20" edge="1">
          <mxGeometry relative="1" as="geometry">
            <mxPoint x="5610" y="460" as="sourcePoint" />
            <mxPoint x="5770" y="460" as="targetPoint" />
          </mxGeometry>
        </mxCell>
        <mxCell id="AoqFfh_UuYeJhRVO-wlk-125" value="" style="endArrow=none;html=1;rounded=0;exitX=0.5;exitY=1;exitDx=0;exitDy=0;entryX=0.5;entryY=0;entryDx=0;entryDy=0;" parent="1" source="AoqFfh_UuYeJhRVO-wlk-29" target="AoqFfh_UuYeJhRVO-wlk-200" edge="1">
          <mxGeometry relative="1" as="geometry">
            <mxPoint x="5650" y="710" as="sourcePoint" />
            <mxPoint x="5810" y="710" as="targetPoint" />
          </mxGeometry>
        </mxCell>
        <mxCell id="AoqFfh_UuYeJhRVO-wlk-127" value="" style="endArrow=none;html=1;rounded=0;entryX=0;entryY=0.5;entryDx=0;entryDy=0;exitX=0.5;exitY=0;exitDx=0;exitDy=0;" parent="1" source="AoqFfh_UuYeJhRVO-wlk-19" target="AoqFfh_UuYeJhRVO-wlk-6" edge="1">
          <mxGeometry relative="1" as="geometry">
            <mxPoint x="1070" y="410" as="sourcePoint" />
            <mxPoint x="1230" y="410" as="targetPoint" />
          </mxGeometry>
        </mxCell>
        <mxCell id="AoqFfh_UuYeJhRVO-wlk-129" value="" style="endArrow=none;html=1;rounded=0;entryX=0;entryY=0.5;entryDx=0;entryDy=0;exitX=0.5;exitY=0;exitDx=0;exitDy=0;" parent="1" source="AoqFfh_UuYeJhRVO-wlk-16" target="AoqFfh_UuYeJhRVO-wlk-7" edge="1">
          <mxGeometry relative="1" as="geometry">
            <mxPoint x="2670" y="380" as="sourcePoint" />
            <mxPoint x="2830" y="380" as="targetPoint" />
          </mxGeometry>
        </mxCell>
        <mxCell id="AoqFfh_UuYeJhRVO-wlk-130" value="" style="endArrow=none;html=1;rounded=0;exitX=1;exitY=1;exitDx=0;exitDy=0;entryX=0.5;entryY=0;entryDx=0;entryDy=0;" parent="1" source="AoqFfh_UuYeJhRVO-wlk-7" target="AoqFfh_UuYeJhRVO-wlk-31" edge="1">
          <mxGeometry relative="1" as="geometry">
            <mxPoint x="2465" y="760.72" as="sourcePoint" />
            <mxPoint x="2625" y="760.72" as="targetPoint" />
          </mxGeometry>
        </mxCell>
        <mxCell id="AoqFfh_UuYeJhRVO-wlk-132" value="" style="endArrow=none;html=1;rounded=0;exitX=0.5;exitY=0;exitDx=0;exitDy=0;entryX=0;entryY=0.5;entryDx=0;entryDy=0;" parent="1" source="AoqFfh_UuYeJhRVO-wlk-17" target="AoqFfh_UuYeJhRVO-wlk-3" edge="1">
          <mxGeometry relative="1" as="geometry">
            <mxPoint x="4830" y="439.28999999999996" as="sourcePoint" />
            <mxPoint x="4990" y="439.28999999999996" as="targetPoint" />
          </mxGeometry>
        </mxCell>
        <mxCell id="AoqFfh_UuYeJhRVO-wlk-133" value="" style="endArrow=none;html=1;rounded=0;entryX=0.5;entryY=1;entryDx=0;entryDy=0;exitX=0.5;exitY=0;exitDx=0;exitDy=0;" parent="1" source="AoqFfh_UuYeJhRVO-wlk-175" target="AoqFfh_UuYeJhRVO-wlk-57" edge="1">
          <mxGeometry relative="1" as="geometry">
            <mxPoint x="2040" y="645" as="sourcePoint" />
            <mxPoint x="2200" y="645" as="targetPoint" />
          </mxGeometry>
        </mxCell>
        <mxCell id="AoqFfh_UuYeJhRVO-wlk-134" value="" style="endArrow=none;html=1;rounded=0;exitX=0.5;exitY=1;exitDx=0;exitDy=0;entryX=0.5;entryY=0;entryDx=0;entryDy=0;" parent="1" source="AoqFfh_UuYeJhRVO-wlk-47" target="AoqFfh_UuYeJhRVO-wlk-79" edge="1">
          <mxGeometry relative="1" as="geometry">
            <mxPoint x="2280" y="730" as="sourcePoint" />
            <mxPoint x="2440" y="730" as="targetPoint" />
          </mxGeometry>
        </mxCell>
        <mxCell id="AoqFfh_UuYeJhRVO-wlk-135" value="" style="endArrow=none;html=1;rounded=0;entryX=0.053;entryY=0.731;entryDx=0;entryDy=0;entryPerimeter=0;exitX=0.5;exitY=0;exitDx=0;exitDy=0;" parent="1" source="AoqFfh_UuYeJhRVO-wlk-50" target="AoqFfh_UuYeJhRVO-wlk-3" edge="1">
          <mxGeometry relative="1" as="geometry">
            <mxPoint x="4852.5" y="671" as="sourcePoint" />
            <mxPoint x="5012.5" y="671" as="targetPoint" />
          </mxGeometry>
        </mxCell>
        <mxCell id="AoqFfh_UuYeJhRVO-wlk-136" value="" style="endArrow=none;html=1;rounded=0;exitX=0.893;exitY=0.806;exitDx=0;exitDy=0;entryX=0.5;entryY=0;entryDx=0;entryDy=0;exitPerimeter=0;" parent="1" source="AoqFfh_UuYeJhRVO-wlk-3" target="OodCGgt8oWpduaX26nYI-8" edge="1">
          <mxGeometry relative="1" as="geometry">
            <mxPoint x="5280" y="440" as="sourcePoint" />
            <mxPoint x="5440" y="440" as="targetPoint" />
          </mxGeometry>
        </mxCell>
        <mxCell id="AoqFfh_UuYeJhRVO-wlk-137" value="" style="endArrow=none;html=1;rounded=0;exitX=0.676;exitY=0.97;exitDx=0;exitDy=0;exitPerimeter=0;entryX=0.5;entryY=0;entryDx=0;entryDy=0;" parent="1" source="AoqFfh_UuYeJhRVO-wlk-21" target="vd_U37cMmbOEggnSm3mW-68" edge="1">
          <mxGeometry relative="1" as="geometry">
            <mxPoint x="7220" y="480" as="sourcePoint" />
            <mxPoint x="7252.5" y="480" as="targetPoint" />
          </mxGeometry>
        </mxCell>
        <mxCell id="AoqFfh_UuYeJhRVO-wlk-138" value="" style="endArrow=none;html=1;rounded=0;exitX=0.5;exitY=0;exitDx=0;exitDy=0;entryX=0.96;entryY=0.703;entryDx=0;entryDy=0;entryPerimeter=0;" parent="1" source="OodCGgt8oWpduaX26nYI-10" target="AoqFfh_UuYeJhRVO-wlk-21" edge="1">
          <mxGeometry relative="1" as="geometry">
            <mxPoint x="7310" y="460" as="sourcePoint" />
            <mxPoint x="7470" y="460" as="targetPoint" />
          </mxGeometry>
        </mxCell>
        <mxCell id="AoqFfh_UuYeJhRVO-wlk-139" value="" style="endArrow=none;html=1;rounded=0;exitX=0.5;exitY=1;exitDx=0;exitDy=0;entryX=0.5;entryY=0;entryDx=0;entryDy=0;" parent="1" source="AoqFfh_UuYeJhRVO-wlk-49" target="AoqFfh_UuYeJhRVO-wlk-188" edge="1">
          <mxGeometry relative="1" as="geometry">
            <mxPoint x="7590" y="590" as="sourcePoint" />
            <mxPoint x="7750" y="590" as="targetPoint" />
          </mxGeometry>
        </mxCell>
        <mxCell id="AoqFfh_UuYeJhRVO-wlk-140" value="" style="endArrow=none;html=1;rounded=0;exitX=0.5;exitY=1;exitDx=0;exitDy=0;entryX=0.5;entryY=0;entryDx=0;entryDy=0;" parent="1" source="AoqFfh_UuYeJhRVO-wlk-50" target="AoqFfh_UuYeJhRVO-wlk-202" edge="1">
          <mxGeometry relative="1" as="geometry">
            <mxPoint x="4720" y="690" as="sourcePoint" />
            <mxPoint x="4880" y="690" as="targetPoint" />
          </mxGeometry>
        </mxCell>
        <mxCell id="AoqFfh_UuYeJhRVO-wlk-141" value="" style="endArrow=none;html=1;rounded=0;exitX=0.5;exitY=1;exitDx=0;exitDy=0;entryX=0.5;entryY=0;entryDx=0;entryDy=0;" parent="1" source="AoqFfh_UuYeJhRVO-wlk-51" target="AoqFfh_UuYeJhRVO-wlk-201" edge="1">
          <mxGeometry relative="1" as="geometry">
            <mxPoint x="4920" y="680" as="sourcePoint" />
            <mxPoint x="5080" y="680" as="targetPoint" />
          </mxGeometry>
        </mxCell>
        <mxCell id="AoqFfh_UuYeJhRVO-wlk-142" value="" style="endArrow=none;html=1;rounded=0;exitX=0.5;exitY=0;exitDx=0;exitDy=0;entryX=1;entryY=0.5;entryDx=0;entryDy=0;" parent="1" source="AoqFfh_UuYeJhRVO-wlk-49" target="AoqFfh_UuYeJhRVO-wlk-21" edge="1">
          <mxGeometry relative="1" as="geometry">
            <mxPoint x="7490" y="460" as="sourcePoint" />
            <mxPoint x="7560" y="440" as="targetPoint" />
          </mxGeometry>
        </mxCell>
        <mxCell id="AoqFfh_UuYeJhRVO-wlk-143" value="" style="endArrow=none;html=1;rounded=0;exitX=0.329;exitY=0.981;exitDx=0;exitDy=0;exitPerimeter=0;entryX=0.5;entryY=0;entryDx=0;entryDy=0;" parent="1" source="AoqFfh_UuYeJhRVO-wlk-21" target="OodCGgt8oWpduaX26nYI-4" edge="1">
          <mxGeometry relative="1" as="geometry">
            <mxPoint x="7065" y="470" as="sourcePoint" />
            <mxPoint x="7225" y="470" as="targetPoint" />
          </mxGeometry>
        </mxCell>
        <mxCell id="AoqFfh_UuYeJhRVO-wlk-154" value="" style="endArrow=none;html=1;rounded=0;entryX=0.5;entryY=1;entryDx=0;entryDy=0;exitX=0.5;exitY=0;exitDx=0;exitDy=0;" parent="1" source="AoqFfh_UuYeJhRVO-wlk-204" target="AoqFfh_UuYeJhRVO-wlk-32" edge="1">
          <mxGeometry relative="1" as="geometry">
            <mxPoint x="5880" y="756.79" as="sourcePoint" />
            <mxPoint x="6040" y="756.79" as="targetPoint" />
          </mxGeometry>
        </mxCell>
        <mxCell id="AoqFfh_UuYeJhRVO-wlk-155" value="" style="endArrow=none;html=1;rounded=0;exitX=0.5;exitY=1;exitDx=0;exitDy=0;entryX=0.5;entryY=0;entryDx=0;entryDy=0;" parent="1" source="AoqFfh_UuYeJhRVO-wlk-48" target="AoqFfh_UuYeJhRVO-wlk-198" edge="1">
          <mxGeometry relative="1" as="geometry">
            <mxPoint x="6160" y="670" as="sourcePoint" />
            <mxPoint x="6320" y="670" as="targetPoint" />
          </mxGeometry>
        </mxCell>
        <mxCell id="AoqFfh_UuYeJhRVO-wlk-156" value="" style="endArrow=none;html=1;rounded=0;entryX=0;entryY=1;entryDx=0;entryDy=0;exitX=0.5;exitY=0;exitDx=0;exitDy=0;" parent="1" source="AoqFfh_UuYeJhRVO-wlk-29" target="AoqFfh_UuYeJhRVO-wlk-28" edge="1">
          <mxGeometry relative="1" as="geometry">
            <mxPoint x="5665" y="600" as="sourcePoint" />
            <mxPoint x="5825" y="600" as="targetPoint" />
          </mxGeometry>
        </mxCell>
        <mxCell id="AoqFfh_UuYeJhRVO-wlk-157" value="" style="endArrow=none;html=1;rounded=0;exitX=1;exitY=1;exitDx=0;exitDy=0;entryX=0.5;entryY=0;entryDx=0;entryDy=0;" parent="1" source="AoqFfh_UuYeJhRVO-wlk-28" target="AoqFfh_UuYeJhRVO-wlk-32" edge="1">
          <mxGeometry relative="1" as="geometry">
            <mxPoint x="5875" y="600" as="sourcePoint" />
            <mxPoint x="6035" y="600" as="targetPoint" />
          </mxGeometry>
        </mxCell>
        <mxCell id="AoqFfh_UuYeJhRVO-wlk-158" value="" style="endArrow=none;html=1;rounded=0;exitX=1;exitY=0.5;exitDx=0;exitDy=0;entryX=0.5;entryY=0;entryDx=0;entryDy=0;" parent="1" source="AoqFfh_UuYeJhRVO-wlk-2" target="AoqFfh_UuYeJhRVO-wlk-48" edge="1">
          <mxGeometry relative="1" as="geometry">
            <mxPoint x="6060" y="480" as="sourcePoint" />
            <mxPoint x="6220" y="480" as="targetPoint" />
          </mxGeometry>
        </mxCell>
        <mxCell id="AoqFfh_UuYeJhRVO-wlk-159" value="" style="endArrow=none;html=1;rounded=0;exitX=0.5;exitY=1;exitDx=0;exitDy=0;entryX=0.5;entryY=0;entryDx=0;entryDy=0;" parent="1" source="AoqFfh_UuYeJhRVO-wlk-2" target="AoqFfh_UuYeJhRVO-wlk-28" edge="1">
          <mxGeometry relative="1" as="geometry">
            <mxPoint x="5870" y="490" as="sourcePoint" />
            <mxPoint x="6030" y="490" as="targetPoint" />
          </mxGeometry>
        </mxCell>
        <mxCell id="AoqFfh_UuYeJhRVO-wlk-160" value="" style="endArrow=none;html=1;rounded=0;exitX=0.5;exitY=0;exitDx=0;exitDy=0;entryX=0;entryY=1;entryDx=0;entryDy=0;" parent="1" source="AoqFfh_UuYeJhRVO-wlk-18" target="AoqFfh_UuYeJhRVO-wlk-4" edge="1">
          <mxGeometry relative="1" as="geometry">
            <mxPoint x="6470" y="472.5" as="sourcePoint" />
            <mxPoint x="6630" y="472.5" as="targetPoint" />
          </mxGeometry>
        </mxCell>
        <mxCell id="AoqFfh_UuYeJhRVO-wlk-161" value="" style="endArrow=none;html=1;rounded=0;exitX=1;exitY=1;exitDx=0;exitDy=0;entryX=0.5;entryY=0;entryDx=0;entryDy=0;" parent="1" source="AoqFfh_UuYeJhRVO-wlk-4" target="AoqFfh_UuYeJhRVO-wlk-33" edge="1">
          <mxGeometry relative="1" as="geometry">
            <mxPoint x="6340" y="652.5" as="sourcePoint" />
            <mxPoint x="6500" y="652.5" as="targetPoint" />
          </mxGeometry>
        </mxCell>
        <mxCell id="AoqFfh_UuYeJhRVO-wlk-162" value="" style="endArrow=none;html=1;rounded=0;entryX=0.5;entryY=1;entryDx=0;entryDy=0;exitX=0.5;exitY=0;exitDx=0;exitDy=0;" parent="1" source="AoqFfh_UuYeJhRVO-wlk-194" target="AoqFfh_UuYeJhRVO-wlk-33" edge="1">
          <mxGeometry relative="1" as="geometry">
            <mxPoint x="6410" y="596.6700000000001" as="sourcePoint" />
            <mxPoint x="6570" y="596.6700000000001" as="targetPoint" />
          </mxGeometry>
        </mxCell>
        <mxCell id="AoqFfh_UuYeJhRVO-wlk-174" value="" style="rounded=0;whiteSpace=wrap;html=1;" parent="1" vertex="1">
          <mxGeometry x="1245" y="580" width="30" height="60" as="geometry" />
        </mxCell>
        <mxCell id="AoqFfh_UuYeJhRVO-wlk-175" value="" style="rounded=0;whiteSpace=wrap;html=1;" parent="1" vertex="1">
          <mxGeometry x="2260" y="580" width="30" height="60" as="geometry" />
        </mxCell>
        <mxCell id="AoqFfh_UuYeJhRVO-wlk-176" value="" style="rounded=0;whiteSpace=wrap;html=1;" parent="1" vertex="1">
          <mxGeometry x="1045" y="580" width="30" height="60" as="geometry" />
        </mxCell>
        <mxCell id="AoqFfh_UuYeJhRVO-wlk-188" value="" style="rounded=0;whiteSpace=wrap;html=1;" parent="1" vertex="1">
          <mxGeometry x="7525" y="580" width="30" height="60" as="geometry" />
        </mxCell>
        <mxCell id="AoqFfh_UuYeJhRVO-wlk-194" value="" style="rounded=0;whiteSpace=wrap;html=1;" parent="1" vertex="1">
          <mxGeometry x="6665" y="580" width="30" height="60" as="geometry" />
        </mxCell>
        <mxCell id="AoqFfh_UuYeJhRVO-wlk-198" value="" style="rounded=0;whiteSpace=wrap;html=1;" parent="1" vertex="1">
          <mxGeometry x="6205" y="580" width="30" height="60" as="geometry" />
        </mxCell>
        <mxCell id="AoqFfh_UuYeJhRVO-wlk-200" value="" style="rounded=0;whiteSpace=wrap;html=1;" parent="1" vertex="1">
          <mxGeometry x="5715" y="740" width="30" height="60" as="geometry" />
        </mxCell>
        <mxCell id="AoqFfh_UuYeJhRVO-wlk-201" value="" style="rounded=0;whiteSpace=wrap;html=1;" parent="1" vertex="1">
          <mxGeometry x="5075" y="580" width="30" height="60" as="geometry" />
        </mxCell>
        <mxCell id="AoqFfh_UuYeJhRVO-wlk-202" value="" style="rounded=0;whiteSpace=wrap;html=1;" parent="1" vertex="1">
          <mxGeometry x="4855" y="580" width="30" height="60" as="geometry" />
        </mxCell>
        <mxCell id="AoqFfh_UuYeJhRVO-wlk-204" value="" style="rounded=0;whiteSpace=wrap;html=1;" parent="1" vertex="1">
          <mxGeometry x="6095" y="740" width="30" height="60" as="geometry" />
        </mxCell>
        <mxCell id="5UzdJfE_4xP-qqBcOs_D-2" value="&lt;span style=&quot;font-size: 14px;&quot;&gt;CSOPkód&lt;/span&gt;" style="shape=rhombus;perimeter=rhombusPerimeter;whiteSpace=wrap;html=1;align=center;" parent="1" vertex="1">
          <mxGeometry x="1560" y="480" width="120" height="100" as="geometry" />
        </mxCell>
        <mxCell id="OodCGgt8oWpduaX26nYI-4" value="&lt;font style=&quot;font-size: 14px;&quot;&gt;Csapat1&lt;/font&gt;" style="shape=rhombus;perimeter=rhombusPerimeter;whiteSpace=wrap;html=1;align=center;" parent="1" vertex="1">
          <mxGeometry x="7030" y="480" width="120" height="100" as="geometry" />
        </mxCell>
        <mxCell id="OodCGgt8oWpduaX26nYI-5" value="" style="endArrow=none;html=1;rounded=0;dashed=1;" parent="1" edge="1">
          <mxGeometry relative="1" as="geometry">
            <mxPoint x="7060" y="539.83" as="sourcePoint" />
            <mxPoint x="7120" y="539.83" as="targetPoint" />
            <Array as="points">
              <mxPoint x="7090" y="539.83" />
            </Array>
          </mxGeometry>
        </mxCell>
        <mxCell id="OodCGgt8oWpduaX26nYI-6" value="&lt;font style=&quot;font-size: 14px;&quot;&gt;Hkód&lt;/font&gt;" style="shape=rhombus;perimeter=rhombusPerimeter;whiteSpace=wrap;html=1;align=center;" parent="1" vertex="1">
          <mxGeometry x="5340" y="480" width="120" height="100" as="geometry" />
        </mxCell>
        <mxCell id="OodCGgt8oWpduaX26nYI-7" value="" style="endArrow=none;html=1;rounded=0;dashed=1;" parent="1" edge="1">
          <mxGeometry relative="1" as="geometry">
            <mxPoint x="5380" y="540" as="sourcePoint" />
            <mxPoint x="5420" y="540" as="targetPoint" />
          </mxGeometry>
        </mxCell>
        <mxCell id="OodCGgt8oWpduaX26nYI-8" value="&lt;font style=&quot;font-size: 14px;&quot;&gt;Tkód&lt;/font&gt;" style="shape=rhombus;perimeter=rhombusPerimeter;whiteSpace=wrap;html=1;align=center;" parent="1" vertex="1">
          <mxGeometry x="5210" y="480" width="120" height="100" as="geometry" />
        </mxCell>
        <mxCell id="OodCGgt8oWpduaX26nYI-9" value="" style="endArrow=none;html=1;rounded=0;dashed=1;" parent="1" edge="1">
          <mxGeometry relative="1" as="geometry">
            <mxPoint x="5250" y="540" as="sourcePoint" />
            <mxPoint x="5290" y="540" as="targetPoint" />
          </mxGeometry>
        </mxCell>
        <mxCell id="OodCGgt8oWpduaX26nYI-10" value="&lt;span style=&quot;font-size: 14px;&quot;&gt;Győztes&lt;/span&gt;" style="shape=rhombus;perimeter=rhombusPerimeter;whiteSpace=wrap;html=1;align=center;" parent="1" vertex="1">
          <mxGeometry x="7310" y="480" width="120" height="100" as="geometry" />
        </mxCell>
        <mxCell id="vd_U37cMmbOEggnSm3mW-1" value="" style="endArrow=classic;html=1;rounded=0;dashed=1;exitX=0.5;exitY=1;exitDx=0;exitDy=0;entryX=0.269;entryY=0.764;entryDx=0;entryDy=0;entryPerimeter=0;" parent="1" source="vd_U37cMmbOEggnSm3mW-68" target="AoqFfh_UuYeJhRVO-wlk-19" edge="1">
          <mxGeometry width="50" height="50" relative="1" as="geometry">
            <mxPoint x="8662.5" y="560" as="sourcePoint" />
            <mxPoint x="882.5" y="580.0000000000002" as="targetPoint" />
            <Array as="points">
              <mxPoint x="7230" y="920" />
              <mxPoint x="850" y="920" />
            </Array>
          </mxGeometry>
        </mxCell>
        <mxCell id="vd_U37cMmbOEggnSm3mW-2" value="" style="endArrow=classic;html=1;rounded=0;dashed=1;exitX=0.5;exitY=1;exitDx=0;exitDy=0;entryX=0.099;entryY=0.603;entryDx=0;entryDy=0;entryPerimeter=0;" parent="1" source="OodCGgt8oWpduaX26nYI-10" target="AoqFfh_UuYeJhRVO-wlk-19" edge="1">
          <mxGeometry width="50" height="50" relative="1" as="geometry">
            <mxPoint x="6110" y="680" as="sourcePoint" />
            <mxPoint x="826.6666666666666" y="560" as="targetPoint" />
            <Array as="points">
              <mxPoint x="7370" y="950" />
              <mxPoint x="832" y="950" />
            </Array>
          </mxGeometry>
        </mxCell>
        <mxCell id="vd_U37cMmbOEggnSm3mW-3" value="" style="endArrow=classic;html=1;rounded=0;dashed=1;exitX=0.5;exitY=1;exitDx=0;exitDy=0;entryX=0.5;entryY=1;entryDx=0;entryDy=0;" parent="1" source="vd_U37cMmbOEggnSm3mW-63" target="AoqFfh_UuYeJhRVO-wlk-15" edge="1">
          <mxGeometry width="50" height="50" relative="1" as="geometry">
            <mxPoint x="1810" y="670" as="sourcePoint" />
            <mxPoint x="1945" y="630" as="targetPoint" />
            <Array as="points">
              <mxPoint x="1770" y="660" />
              <mxPoint x="2040" y="660" />
            </Array>
          </mxGeometry>
        </mxCell>
        <mxCell id="vd_U37cMmbOEggnSm3mW-4" value="" style="endArrow=classic;html=1;rounded=0;dashed=1;exitX=0.5;exitY=1;exitDx=0;exitDy=0;entryX=0.5;entryY=1;entryDx=0;entryDy=0;" parent="1" source="5UzdJfE_4xP-qqBcOs_D-2" target="AoqFfh_UuYeJhRVO-wlk-16" edge="1">
          <mxGeometry width="50" height="50" relative="1" as="geometry">
            <mxPoint x="1680" y="740" as="sourcePoint" />
            <mxPoint x="1740" y="710" as="targetPoint" />
            <Array as="points">
              <mxPoint x="1620" y="730" />
              <mxPoint x="2870" y="730" />
            </Array>
          </mxGeometry>
        </mxCell>
        <mxCell id="vd_U37cMmbOEggnSm3mW-5" value="" style="endArrow=classic;html=1;rounded=0;dashed=1;exitX=0.5;exitY=1;exitDx=0;exitDy=0;entryX=0.5;entryY=1;entryDx=0;entryDy=0;" parent="1" source="vd_U37cMmbOEggnSm3mW-66" target="AoqFfh_UuYeJhRVO-wlk-12" edge="1">
          <mxGeometry width="50" height="50" relative="1" as="geometry">
            <mxPoint x="1425" y="730" as="sourcePoint" />
            <mxPoint x="1560" y="690" as="targetPoint" />
            <Array as="points">
              <mxPoint x="1460" y="810" />
              <mxPoint x="3410" y="810" />
            </Array>
          </mxGeometry>
        </mxCell>
        <mxCell id="vd_U37cMmbOEggnSm3mW-6" value="" style="endArrow=classic;html=1;rounded=0;dashed=1;exitX=0.5;exitY=1;exitDx=0;exitDy=0;entryX=0.67;entryY=0.84;entryDx=0;entryDy=0;entryPerimeter=0;" parent="1" source="AoqFfh_UuYeJhRVO-wlk-61" target="AoqFfh_UuYeJhRVO-wlk-19" edge="1">
          <mxGeometry width="50" height="50" relative="1" as="geometry">
            <mxPoint x="4520" y="581.0999999999999" as="sourcePoint" />
            <mxPoint x="892.5999999999999" y="579.9999999999998" as="targetPoint" />
            <Array as="points">
              <mxPoint x="4520" y="860" />
              <mxPoint x="900" y="860" />
            </Array>
          </mxGeometry>
        </mxCell>
        <mxCell id="vd_U37cMmbOEggnSm3mW-11" value="" style="endArrow=classic;html=1;rounded=0;dashed=1;exitX=0.5;exitY=1;exitDx=0;exitDy=0;entryX=0.5;entryY=1;entryDx=0;entryDy=0;" parent="1" source="OodCGgt8oWpduaX26nYI-6" target="AoqFfh_UuYeJhRVO-wlk-20" edge="1">
          <mxGeometry width="50" height="50" relative="1" as="geometry">
            <mxPoint x="5530" y="700" as="sourcePoint" />
            <mxPoint x="5665" y="660" as="targetPoint" />
            <Array as="points">
              <mxPoint x="5400" y="670" />
              <mxPoint x="5620" y="670" />
            </Array>
          </mxGeometry>
        </mxCell>
        <mxCell id="vd_U37cMmbOEggnSm3mW-16" value="" style="endArrow=classic;html=1;rounded=0;dashed=1;exitX=0.5;exitY=1;exitDx=0;exitDy=0;entryX=0.5;entryY=1;entryDx=0;entryDy=0;" parent="1" source="OodCGgt8oWpduaX26nYI-4" target="AoqFfh_UuYeJhRVO-wlk-19" edge="1">
          <mxGeometry width="50" height="50" relative="1" as="geometry">
            <mxPoint x="5770" y="650" as="sourcePoint" />
            <mxPoint x="5905" y="610" as="targetPoint" />
            <Array as="points">
              <mxPoint x="7090" y="870" />
              <mxPoint x="7090" y="890" />
              <mxPoint x="880" y="890" />
            </Array>
          </mxGeometry>
        </mxCell>
        <mxCell id="vd_U37cMmbOEggnSm3mW-45" value="" style="endArrow=classic;html=1;rounded=0;dashed=1;exitX=0.5;exitY=1;exitDx=0;exitDy=0;entryX=0.5;entryY=1;entryDx=0;entryDy=0;" parent="1" source="OodCGgt8oWpduaX26nYI-8" target="AoqFfh_UuYeJhRVO-wlk-18" edge="1">
          <mxGeometry width="50" height="50" relative="1" as="geometry">
            <mxPoint x="5380" y="720" as="sourcePoint" />
            <mxPoint x="5515" y="680" as="targetPoint" />
            <Array as="points">
              <mxPoint x="5270" y="830" />
              <mxPoint x="6440" y="830" />
            </Array>
          </mxGeometry>
        </mxCell>
        <mxCell id="vd_U37cMmbOEggnSm3mW-63" value="&lt;span style=&quot;font-size: 14px;&quot;&gt;LOGÓkód&lt;/span&gt;" style="shape=rhombus;perimeter=rhombusPerimeter;whiteSpace=wrap;html=1;align=center;" parent="1" vertex="1">
          <mxGeometry x="1710" y="480" width="120" height="100" as="geometry" />
        </mxCell>
        <mxCell id="vd_U37cMmbOEggnSm3mW-66" value="&lt;span style=&quot;font-size: 14px;&quot;&gt;Csapatkapitány&lt;/span&gt;" style="shape=rhombus;perimeter=rhombusPerimeter;whiteSpace=wrap;html=1;align=center;" parent="1" vertex="1">
          <mxGeometry x="1400" y="480" width="120" height="100" as="geometry" />
        </mxCell>
        <mxCell id="vd_U37cMmbOEggnSm3mW-67" value="" style="endArrow=none;html=1;rounded=0;dashed=1;exitX=0.121;exitY=0.599;exitDx=0;exitDy=0;exitPerimeter=0;entryX=0.891;entryY=0.596;entryDx=0;entryDy=0;entryPerimeter=0;" parent="1" source="vd_U37cMmbOEggnSm3mW-66" target="vd_U37cMmbOEggnSm3mW-66" edge="1">
          <mxGeometry relative="1" as="geometry">
            <mxPoint x="1457" y="536" as="sourcePoint" />
            <mxPoint x="1523" y="535" as="targetPoint" />
          </mxGeometry>
        </mxCell>
        <mxCell id="vd_U37cMmbOEggnSm3mW-68" value="&lt;font style=&quot;font-size: 14px;&quot;&gt;Csapat2&lt;/font&gt;" style="shape=rhombus;perimeter=rhombusPerimeter;whiteSpace=wrap;html=1;align=center;" parent="1" vertex="1">
          <mxGeometry x="7170" y="480" width="120" height="100" as="geometry" />
        </mxCell>
        <mxCell id="vd_U37cMmbOEggnSm3mW-69" value="" style="endArrow=none;html=1;rounded=0;dashed=1;" parent="1" edge="1">
          <mxGeometry relative="1" as="geometry">
            <mxPoint x="7200" y="539.71" as="sourcePoint" />
            <mxPoint x="7260" y="539.71" as="targetPoint" />
          </mxGeometry>
        </mxCell>
        <mxCell id="vd_U37cMmbOEggnSm3mW-72" value="" style="endArrow=none;html=1;rounded=0;dashed=1;" parent="1" edge="1">
          <mxGeometry relative="1" as="geometry">
            <mxPoint x="7340" y="539.71" as="sourcePoint" />
            <mxPoint x="7400" y="539.71" as="targetPoint" />
          </mxGeometry>
        </mxCell>
        <mxCell id="vd_U37cMmbOEggnSm3mW-73" value="" style="endArrow=none;html=1;rounded=0;exitX=0.5;exitY=1;exitDx=0;exitDy=0;entryX=0.5;entryY=0;entryDx=0;entryDy=0;" parent="1" source="AoqFfh_UuYeJhRVO-wlk-6" target="vd_U37cMmbOEggnSm3mW-66" edge="1">
          <mxGeometry relative="1" as="geometry">
            <mxPoint x="1483" y="440" as="sourcePoint" />
            <mxPoint x="1560" y="508" as="targetPoint" />
          </mxGeometry>
        </mxCell>
        <mxCell id="vd_U37cMmbOEggnSm3mW-75" value="" style="endArrow=none;html=1;rounded=0;dashed=1;" parent="1" edge="1">
          <mxGeometry relative="1" as="geometry">
            <mxPoint x="1585" y="539.91" as="sourcePoint" />
            <mxPoint x="1655" y="539.91" as="targetPoint" />
            <Array as="points">
              <mxPoint x="1615" y="539.91" />
            </Array>
          </mxGeometry>
        </mxCell>
        <mxCell id="vd_U37cMmbOEggnSm3mW-77" value="" style="endArrow=none;html=1;rounded=0;dashed=1;" parent="1" edge="1">
          <mxGeometry relative="1" as="geometry">
            <mxPoint x="1735" y="539.8199999999999" as="sourcePoint" />
            <mxPoint x="1805" y="539.8199999999999" as="targetPoint" />
            <Array as="points">
              <mxPoint x="1765" y="539.8199999999999" />
            </Array>
          </mxGeometry>
        </mxCell>
        <mxCell id="vd_U37cMmbOEggnSm3mW-78" value="" style="endArrow=none;html=1;rounded=0;exitX=0.5;exitY=0;exitDx=0;exitDy=0;entryX=0;entryY=0.5;entryDx=0;entryDy=0;" parent="1" source="AoqFfh_UuYeJhRVO-wlk-6" target="AoqFfh_UuYeJhRVO-wlk-1" edge="1">
          <mxGeometry relative="1" as="geometry">
            <mxPoint x="1580" y="250" as="sourcePoint" />
            <mxPoint x="1890" y="160" as="targetPoint" />
          </mxGeometry>
        </mxCell>
        <mxCell id="vd_U37cMmbOEggnSm3mW-79" value="" style="endArrow=none;html=1;rounded=0;exitX=0.5;exitY=0;exitDx=0;exitDy=0;entryX=0.019;entryY=0.629;entryDx=0;entryDy=0;entryPerimeter=0;" parent="1" source="AoqFfh_UuYeJhRVO-wlk-5" target="AoqFfh_UuYeJhRVO-wlk-1" edge="1">
          <mxGeometry relative="1" as="geometry">
            <mxPoint x="2440" y="380" as="sourcePoint" />
            <mxPoint x="2750" y="290" as="targetPoint" />
          </mxGeometry>
        </mxCell>
        <mxCell id="vd_U37cMmbOEggnSm3mW-80" value="" style="endArrow=none;html=1;rounded=0;exitX=0.5;exitY=0;exitDx=0;exitDy=0;entryX=0.126;entryY=0.833;entryDx=0;entryDy=0;entryPerimeter=0;" parent="1" source="AoqFfh_UuYeJhRVO-wlk-8" target="AoqFfh_UuYeJhRVO-wlk-1" edge="1">
          <mxGeometry relative="1" as="geometry">
            <mxPoint x="4020" y="360" as="sourcePoint" />
            <mxPoint x="4330" y="270" as="targetPoint" />
          </mxGeometry>
        </mxCell>
        <mxCell id="vd_U37cMmbOEggnSm3mW-81" value="" style="endArrow=none;html=1;rounded=0;exitX=0.5;exitY=0;exitDx=0;exitDy=0;entryX=0.061;entryY=0.739;entryDx=0;entryDy=0;entryPerimeter=0;" parent="1" source="AoqFfh_UuYeJhRVO-wlk-7" target="AoqFfh_UuYeJhRVO-wlk-1" edge="1">
          <mxGeometry relative="1" as="geometry">
            <mxPoint x="3225" y="340" as="sourcePoint" />
            <mxPoint x="3535" y="250" as="targetPoint" />
          </mxGeometry>
        </mxCell>
        <mxCell id="vd_U37cMmbOEggnSm3mW-82" value="" style="endArrow=none;html=1;rounded=0;exitX=1;exitY=0.5;exitDx=0;exitDy=0;entryX=0.5;entryY=0;entryDx=0;entryDy=0;" parent="1" source="AoqFfh_UuYeJhRVO-wlk-1" target="AoqFfh_UuYeJhRVO-wlk-21" edge="1">
          <mxGeometry relative="1" as="geometry">
            <mxPoint x="6680" y="230" as="sourcePoint" />
            <mxPoint x="6900" y="320" as="targetPoint" />
          </mxGeometry>
        </mxCell>
        <mxCell id="vd_U37cMmbOEggnSm3mW-83" value="" style="endArrow=none;html=1;rounded=0;entryX=0.5;entryY=0;entryDx=0;entryDy=0;exitX=0.877;exitY=0.828;exitDx=0;exitDy=0;exitPerimeter=0;" parent="1" source="AoqFfh_UuYeJhRVO-wlk-1" target="AoqFfh_UuYeJhRVO-wlk-2" edge="1">
          <mxGeometry relative="1" as="geometry">
            <mxPoint x="4649.997452822419" y="170.00415305425986" as="sourcePoint" />
            <mxPoint x="5908.55" y="367.24" as="targetPoint" />
          </mxGeometry>
        </mxCell>
        <mxCell id="vd_U37cMmbOEggnSm3mW-84" value="" style="endArrow=none;html=1;rounded=0;exitX=0.725;exitY=0.948;exitDx=0;exitDy=0;entryX=0.5;entryY=0;entryDx=0;entryDy=0;exitPerimeter=0;" parent="1" source="AoqFfh_UuYeJhRVO-wlk-1" target="AoqFfh_UuYeJhRVO-wlk-3" edge="1">
          <mxGeometry relative="1" as="geometry">
            <mxPoint x="4730" y="250" as="sourcePoint" />
            <mxPoint x="4950" y="340" as="targetPoint" />
          </mxGeometry>
        </mxCell>
        <mxCell id="vd_U37cMmbOEggnSm3mW-85" value="" style="endArrow=none;html=1;rounded=0;entryX=0.5;entryY=0;entryDx=0;entryDy=0;exitX=0.942;exitY=0.732;exitDx=0;exitDy=0;exitPerimeter=0;" parent="1" source="AoqFfh_UuYeJhRVO-wlk-1" target="AoqFfh_UuYeJhRVO-wlk-4" edge="1">
          <mxGeometry relative="1" as="geometry">
            <mxPoint x="4680" y="180" as="sourcePoint" />
            <mxPoint x="6360" y="370" as="targetPoint" />
          </mxGeometry>
        </mxCell>
        <mxCell id="HSH1MxH3rhOv5BKigvBB-1" value="&lt;span style=&quot;font-size: 14px;&quot;&gt;Férőhely&lt;/span&gt;" style="ellipse;whiteSpace=wrap;html=1;align=center;" parent="1" vertex="1">
          <mxGeometry x="5830" y="637.5" width="180" height="60" as="geometry" />
        </mxCell>
        <mxCell id="HSH1MxH3rhOv5BKigvBB-2" value="" style="endArrow=none;html=1;rounded=0;exitX=0.5;exitY=1;exitDx=0;exitDy=0;entryX=0.5;entryY=0;entryDx=0;entryDy=0;" parent="1" source="HSH1MxH3rhOv5BKigvBB-1" target="HSH1MxH3rhOv5BKigvBB-4" edge="1">
          <mxGeometry relative="1" as="geometry">
            <mxPoint x="5890" y="697.5" as="sourcePoint" />
            <mxPoint x="5890" y="737.5" as="targetPoint" />
          </mxGeometry>
        </mxCell>
        <mxCell id="HSH1MxH3rhOv5BKigvBB-3" value="" style="endArrow=none;html=1;rounded=0;entryX=0.5;entryY=1;entryDx=0;entryDy=0;exitX=0.5;exitY=0;exitDx=0;exitDy=0;" parent="1" source="HSH1MxH3rhOv5BKigvBB-1" target="AoqFfh_UuYeJhRVO-wlk-28" edge="1">
          <mxGeometry relative="1" as="geometry">
            <mxPoint x="5785" y="609" as="sourcePoint" />
            <mxPoint x="5930" y="540" as="targetPoint" />
          </mxGeometry>
        </mxCell>
        <mxCell id="HSH1MxH3rhOv5BKigvBB-4" value="" style="rounded=0;whiteSpace=wrap;html=1;" parent="1" vertex="1">
          <mxGeometry x="5905" y="740" width="30" height="60" as="geometry" />
        </mxCell>
        <mxCell id="-erG2tof0OGADK5KR8DD-1" value="&lt;font style=&quot;font-size: 14px;&quot;&gt;Mkód&lt;/font&gt;" style="shape=rhombus;perimeter=rhombusPerimeter;whiteSpace=wrap;html=1;align=center;" vertex="1" parent="1">
          <mxGeometry x="6880" y="480" width="120" height="100" as="geometry" />
        </mxCell>
        <mxCell id="-erG2tof0OGADK5KR8DD-2" value="" style="endArrow=none;html=1;rounded=0;dashed=1;" edge="1" parent="1">
          <mxGeometry relative="1" as="geometry">
            <mxPoint x="6920" y="540" as="sourcePoint" />
            <mxPoint x="6960" y="540" as="targetPoint" />
          </mxGeometry>
        </mxCell>
        <mxCell id="-erG2tof0OGADK5KR8DD-3" value="" style="endArrow=none;html=1;rounded=0;exitX=0.5;exitY=0;exitDx=0;exitDy=0;entryX=0;entryY=0.5;entryDx=0;entryDy=0;" edge="1" parent="1" source="-erG2tof0OGADK5KR8DD-1" target="AoqFfh_UuYeJhRVO-wlk-21">
          <mxGeometry relative="1" as="geometry">
            <mxPoint x="7110" y="440" as="sourcePoint" />
            <mxPoint x="7291" y="511" as="targetPoint" />
          </mxGeometry>
        </mxCell>
        <mxCell id="-erG2tof0OGADK5KR8DD-5" value="" style="endArrow=classic;html=1;rounded=0;dashed=1;entryX=0.5;entryY=1;entryDx=0;entryDy=0;" edge="1" parent="1" source="-erG2tof0OGADK5KR8DD-1" target="AoqFfh_UuYeJhRVO-wlk-17">
          <mxGeometry width="50" height="50" relative="1" as="geometry">
            <mxPoint x="5010" y="740" as="sourcePoint" />
            <mxPoint x="4820" y="730" as="targetPoint" />
            <Array as="points">
              <mxPoint x="6940" y="720" />
              <mxPoint x="6940" y="860" />
              <mxPoint x="4690" y="860" />
            </Array>
          </mxGeometry>
        </mxCell>
      </root>
    </mxGraphModel>
  </diagram>
  <diagram id="aWkTIHrULSBxxbONp3y6" name="2 oldal">
    <mxGraphModel dx="4185" dy="1955" grid="1" gridSize="10" guides="1" tooltips="1" connect="1" arrows="1" fold="1" page="1" pageScale="1" pageWidth="20000" pageHeight="22000" math="0" shadow="0">
      <root>
        <mxCell id="0" />
        <mxCell id="1" parent="0" />
        <mxCell id="VSbkhnIBNn_-im1Td6wS-1" value="&lt;span style=&quot;font-size: 14px;&quot;&gt;Világbajnokság_DLWGQZ&lt;/span&gt;" style="ellipse;shape=doubleEllipse;margin=3;whiteSpace=wrap;html=1;align=center;" vertex="1" parent="1">
          <mxGeometry x="3780" y="190" width="180" height="60" as="geometry" />
        </mxCell>
        <mxCell id="VSbkhnIBNn_-im1Td6wS-2" value="&lt;font style=&quot;font-size: 14px;&quot;&gt;Helyszín&lt;/font&gt;" style="ellipse;shape=doubleEllipse;margin=3;whiteSpace=wrap;html=1;align=center;" vertex="1" parent="1">
          <mxGeometry x="5900" y="810" width="180" height="60" as="geometry" />
        </mxCell>
        <mxCell id="VSbkhnIBNn_-im1Td6wS-3" value="&lt;span style=&quot;font-size: 14px;&quot;&gt;Mérkőzés&lt;/span&gt;" style="ellipse;shape=doubleEllipse;margin=3;whiteSpace=wrap;html=1;align=center;" vertex="1" parent="1">
          <mxGeometry x="4470" y="830" width="180" height="60" as="geometry" />
        </mxCell>
        <mxCell id="VSbkhnIBNn_-im1Td6wS-4" value="&lt;span style=&quot;font-size: 14px;&quot;&gt;Típus&lt;/span&gt;" style="ellipse;shape=doubleEllipse;margin=3;whiteSpace=wrap;html=1;align=center;" vertex="1" parent="1">
          <mxGeometry x="6920" y="860" width="180" height="60" as="geometry" />
        </mxCell>
        <mxCell id="VSbkhnIBNn_-im1Td6wS-5" value="&lt;span style=&quot;font-size: 14px;&quot;&gt;Logó&lt;/span&gt;" style="ellipse;shape=doubleEllipse;margin=3;whiteSpace=wrap;html=1;align=center;" vertex="1" parent="1">
          <mxGeometry x="2895" y="820" width="180" height="60" as="geometry" />
        </mxCell>
        <mxCell id="VSbkhnIBNn_-im1Td6wS-6" value="&lt;font style=&quot;font-size: 14px;&quot;&gt;Csapat&lt;/font&gt;" style="ellipse;shape=doubleEllipse;margin=3;whiteSpace=wrap;html=1;align=center;" vertex="1" parent="1">
          <mxGeometry x="720" y="820" width="180" height="60" as="geometry" />
        </mxCell>
        <mxCell id="VSbkhnIBNn_-im1Td6wS-7" value="&lt;span style=&quot;font-size: 14px;&quot;&gt;Csoport&lt;/span&gt;" style="ellipse;shape=doubleEllipse;margin=3;whiteSpace=wrap;html=1;align=center;" vertex="1" parent="1">
          <mxGeometry x="3560" y="820" width="180" height="60" as="geometry" />
        </mxCell>
        <mxCell id="VSbkhnIBNn_-im1Td6wS-8" value="&lt;span style=&quot;font-size: 14px;&quot;&gt;Labdarúgó&lt;/span&gt;" style="ellipse;shape=doubleEllipse;margin=3;whiteSpace=wrap;html=1;align=center;" vertex="1" parent="1">
          <mxGeometry x="1865" y="820" width="180" height="60" as="geometry" />
        </mxCell>
        <mxCell id="VSbkhnIBNn_-im1Td6wS-9" value="&lt;u&gt;&lt;font style=&quot;font-size: 14px;&quot;&gt;Lkód&lt;/font&gt;&lt;/u&gt;" style="shape=rhombus;perimeter=rhombusPerimeter;whiteSpace=wrap;html=1;align=center;" vertex="1" parent="1">
          <mxGeometry x="1360" y="930" width="90" height="80" as="geometry" />
        </mxCell>
        <mxCell id="VSbkhnIBNn_-im1Td6wS-10" value="&lt;span style=&quot;font-size: 14px;&quot;&gt;Gól&lt;/span&gt;" style="ellipse;whiteSpace=wrap;html=1;align=center;" vertex="1" parent="1">
          <mxGeometry x="1865" y="940" width="180" height="60" as="geometry" />
        </mxCell>
        <mxCell id="VSbkhnIBNn_-im1Td6wS-11" value="&lt;u&gt;LOGÓkód&lt;/u&gt;" style="shape=rhombus;perimeter=rhombusPerimeter;whiteSpace=wrap;html=1;align=center;" vertex="1" parent="1">
          <mxGeometry x="2720" y="930" width="90" height="80" as="geometry" />
        </mxCell>
        <mxCell id="VSbkhnIBNn_-im1Td6wS-12" value="&lt;u&gt;CSOPkód&lt;/u&gt;" style="shape=rhombus;perimeter=rhombusPerimeter;whiteSpace=wrap;html=1;align=center;" vertex="1" parent="1">
          <mxGeometry x="3400" y="930" width="90" height="80" as="geometry" />
        </mxCell>
        <mxCell id="VSbkhnIBNn_-im1Td6wS-13" value="&lt;u&gt;Mkód&lt;/u&gt;" style="shape=rhombus;perimeter=rhombusPerimeter;whiteSpace=wrap;html=1;align=center;" vertex="1" parent="1">
          <mxGeometry x="4130" y="930" width="90" height="80" as="geometry" />
        </mxCell>
        <mxCell id="VSbkhnIBNn_-im1Td6wS-14" value="&lt;u&gt;Tkód&lt;/u&gt;" style="shape=rhombus;perimeter=rhombusPerimeter;whiteSpace=wrap;html=1;align=center;" vertex="1" parent="1">
          <mxGeometry x="6850" y="960" width="90" height="80" as="geometry" />
        </mxCell>
        <mxCell id="VSbkhnIBNn_-im1Td6wS-15" value="&lt;u&gt;CSkód&lt;/u&gt;" style="shape=rhombus;perimeter=rhombusPerimeter;whiteSpace=wrap;html=1;align=center;" vertex="1" parent="1">
          <mxGeometry x="200" y="930" width="90" height="80" as="geometry" />
        </mxCell>
        <mxCell id="VSbkhnIBNn_-im1Td6wS-16" value="&lt;u&gt;Hkód&lt;/u&gt;" style="shape=rhombus;perimeter=rhombusPerimeter;whiteSpace=wrap;html=1;align=center;" vertex="1" parent="1">
          <mxGeometry x="5650" y="930" width="90" height="80" as="geometry" />
        </mxCell>
        <mxCell id="VSbkhnIBNn_-im1Td6wS-17" value="&lt;span style=&quot;font-size: 14px;&quot;&gt;Mérkőzik&lt;/span&gt;" style="ellipse;shape=doubleEllipse;margin=3;whiteSpace=wrap;html=1;align=center;" vertex="1" parent="1">
          <mxGeometry x="5180" y="830" width="180" height="60" as="geometry" />
        </mxCell>
        <mxCell id="VSbkhnIBNn_-im1Td6wS-18" value="&lt;span style=&quot;font-size: 14px;&quot;&gt;Mezszám&lt;/span&gt;" style="ellipse;whiteSpace=wrap;html=1;align=center;" vertex="1" parent="1">
          <mxGeometry x="2050" y="940" width="180" height="60" as="geometry" />
        </mxCell>
        <mxCell id="VSbkhnIBNn_-im1Td6wS-19" value="&lt;span style=&quot;font-size: 14px;&quot;&gt;Szülidő&lt;/span&gt;" style="ellipse;whiteSpace=wrap;html=1;align=center;" vertex="1" parent="1">
          <mxGeometry x="2245" y="940" width="180" height="60" as="geometry" />
        </mxCell>
        <mxCell id="VSbkhnIBNn_-im1Td6wS-20" value="&lt;span style=&quot;font-size: 14px;&quot;&gt;Név&lt;/span&gt;" style="ellipse;whiteSpace=wrap;html=1;align=center;" vertex="1" parent="1">
          <mxGeometry x="1670" y="940" width="180" height="60" as="geometry" />
        </mxCell>
        <mxCell id="VSbkhnIBNn_-im1Td6wS-21" value="&lt;span style=&quot;font-size: 14px;&quot;&gt;Vezetéknév&lt;/span&gt;" style="ellipse;whiteSpace=wrap;html=1;align=center;" vertex="1" parent="1">
          <mxGeometry x="1580" y="1100" width="180" height="60" as="geometry" />
        </mxCell>
        <mxCell id="VSbkhnIBNn_-im1Td6wS-22" value="&lt;span style=&quot;font-size: 14px;&quot;&gt;Vezetőedző&lt;/span&gt;" style="ellipse;whiteSpace=wrap;html=1;align=center;" vertex="1" parent="1">
          <mxGeometry x="320" y="940" width="180" height="60" as="geometry" />
        </mxCell>
        <mxCell id="VSbkhnIBNn_-im1Td6wS-23" value="&lt;span style=&quot;font-size: 14px;&quot;&gt;Név&lt;/span&gt;" style="ellipse;whiteSpace=wrap;html=1;align=center;" vertex="1" parent="1">
          <mxGeometry x="520" y="940" width="180" height="60" as="geometry" />
        </mxCell>
        <mxCell id="VSbkhnIBNn_-im1Td6wS-24" value="&lt;span style=&quot;font-size: 14px;&quot;&gt;Stadion&lt;/span&gt;" style="ellipse;whiteSpace=wrap;html=1;align=center;" vertex="1" parent="1">
          <mxGeometry x="5900" y="940" width="180" height="60" as="geometry" />
        </mxCell>
        <mxCell id="VSbkhnIBNn_-im1Td6wS-25" value="&lt;span style=&quot;font-size: 14px;&quot;&gt;Férőhely&lt;/span&gt;" style="ellipse;whiteSpace=wrap;html=1;align=center;" vertex="1" parent="1">
          <mxGeometry x="5780" y="1060" width="180" height="60" as="geometry" />
        </mxCell>
        <mxCell id="VSbkhnIBNn_-im1Td6wS-26" value="&lt;span style=&quot;font-size: 14px;&quot;&gt;Csapatkapitány&lt;/span&gt;" style="ellipse;whiteSpace=wrap;html=1;align=center;" vertex="1" parent="1">
          <mxGeometry x="720" y="940" width="180" height="60" as="geometry" />
        </mxCell>
        <mxCell id="VSbkhnIBNn_-im1Td6wS-27" value="&lt;span style=&quot;font-size: 14px;&quot;&gt;Jelölés&lt;/span&gt;" style="ellipse;whiteSpace=wrap;html=1;align=center;" vertex="1" parent="1">
          <mxGeometry x="3560" y="940" width="180" height="60" as="geometry" />
        </mxCell>
        <mxCell id="VSbkhnIBNn_-im1Td6wS-28" value="&lt;span style=&quot;font-size: 14px;&quot;&gt;Gól&lt;/span&gt;" style="ellipse;whiteSpace=wrap;html=1;align=center;" vertex="1" parent="1">
          <mxGeometry x="6030" y="1060" width="180" height="60" as="geometry" />
        </mxCell>
        <mxCell id="VSbkhnIBNn_-im1Td6wS-29" value="&lt;span style=&quot;font-size: 14px;&quot;&gt;Név&lt;/span&gt;" style="ellipse;whiteSpace=wrap;html=1;align=center;" vertex="1" parent="1">
          <mxGeometry x="7040" y="970" width="180" height="60" as="geometry" />
        </mxCell>
        <mxCell id="VSbkhnIBNn_-im1Td6wS-30" value="&lt;span style=&quot;font-size: 14px;&quot;&gt;Gól&lt;/span&gt;" style="ellipse;whiteSpace=wrap;html=1;align=center;" vertex="1" parent="1">
          <mxGeometry x="3880" y="2060" width="180" height="60" as="geometry" />
        </mxCell>
        <mxCell id="VSbkhnIBNn_-im1Td6wS-31" value="&lt;span style=&quot;font-size: 14px;&quot;&gt;Gól&lt;/span&gt;" style="ellipse;whiteSpace=wrap;html=1;align=center;" vertex="1" parent="1">
          <mxGeometry x="4080" y="2060" width="180" height="60" as="geometry" />
        </mxCell>
        <mxCell id="VSbkhnIBNn_-im1Td6wS-32" value="&lt;span style=&quot;font-size: 14px;&quot;&gt;Gól&lt;/span&gt;" style="ellipse;whiteSpace=wrap;html=1;align=center;" vertex="1" parent="1">
          <mxGeometry x="3900" y="2160" width="180" height="60" as="geometry" />
        </mxCell>
        <mxCell id="VSbkhnIBNn_-im1Td6wS-33" value="&lt;span style=&quot;font-size: 14px;&quot;&gt;Gól&lt;/span&gt;" style="ellipse;whiteSpace=wrap;html=1;align=center;" vertex="1" parent="1">
          <mxGeometry x="4100" y="2160" width="180" height="60" as="geometry" />
        </mxCell>
        <mxCell id="VSbkhnIBNn_-im1Td6wS-34" value="&lt;span style=&quot;font-size: 14px;&quot;&gt;Gól&lt;/span&gt;" style="ellipse;whiteSpace=wrap;html=1;align=center;" vertex="1" parent="1">
          <mxGeometry x="4300" y="2170" width="180" height="60" as="geometry" />
        </mxCell>
        <mxCell id="VSbkhnIBNn_-im1Td6wS-35" value="&lt;span style=&quot;font-size: 14px;&quot;&gt;Gól&lt;/span&gt;" style="ellipse;whiteSpace=wrap;html=1;align=center;" vertex="1" parent="1">
          <mxGeometry x="3910" y="2250" width="180" height="60" as="geometry" />
        </mxCell>
        <mxCell id="VSbkhnIBNn_-im1Td6wS-36" value="&lt;span style=&quot;font-size: 14px;&quot;&gt;Gól&lt;/span&gt;" style="ellipse;whiteSpace=wrap;html=1;align=center;" vertex="1" parent="1">
          <mxGeometry x="4110" y="2250" width="180" height="60" as="geometry" />
        </mxCell>
        <mxCell id="VSbkhnIBNn_-im1Td6wS-37" value="&lt;span style=&quot;font-size: 14px;&quot;&gt;Gól&lt;/span&gt;" style="ellipse;whiteSpace=wrap;html=1;align=center;" vertex="1" parent="1">
          <mxGeometry x="4310" y="2260" width="180" height="60" as="geometry" />
        </mxCell>
        <mxCell id="VSbkhnIBNn_-im1Td6wS-38" value="&lt;font style=&quot;font-size: 14px;&quot;&gt;Keresztnév&lt;/font&gt;" style="ellipse;whiteSpace=wrap;html=1;align=center;" vertex="1" parent="1">
          <mxGeometry x="1775" y="1100" width="180" height="60" as="geometry" />
        </mxCell>
        <mxCell id="VSbkhnIBNn_-im1Td6wS-39" value="&lt;span style=&quot;font-size: 14px;&quot;&gt;Tervező&lt;/span&gt;" style="ellipse;whiteSpace=wrap;html=1;align=center;" vertex="1" parent="1">
          <mxGeometry x="3120" y="940" width="180" height="60" as="geometry" />
        </mxCell>
        <mxCell id="VSbkhnIBNn_-im1Td6wS-40" value="&lt;span style=&quot;font-size: 14px;&quot;&gt;Város&lt;/span&gt;" style="ellipse;whiteSpace=wrap;html=1;align=center;" vertex="1" parent="1">
          <mxGeometry x="6200" y="930" width="180" height="60" as="geometry" />
        </mxCell>
        <mxCell id="VSbkhnIBNn_-im1Td6wS-41" value="&lt;span style=&quot;font-size: 14px;&quot;&gt;Dátum&lt;/span&gt;" style="ellipse;whiteSpace=wrap;html=1;align=center;" vertex="1" parent="1">
          <mxGeometry x="4950" y="940" width="180" height="60" as="geometry" />
        </mxCell>
        <mxCell id="VSbkhnIBNn_-im1Td6wS-42" value="&lt;span style=&quot;font-size: 14px;&quot;&gt;csapat1Gólok&lt;/span&gt;" style="ellipse;whiteSpace=wrap;html=1;align=center;" vertex="1" parent="1">
          <mxGeometry x="4250" y="940" width="180" height="60" as="geometry" />
        </mxCell>
        <mxCell id="VSbkhnIBNn_-im1Td6wS-43" value="&lt;span style=&quot;font-size: 14px;&quot;&gt;Csapat2Gólok&lt;/span&gt;" style="ellipse;whiteSpace=wrap;html=1;align=center;" vertex="1" parent="1">
          <mxGeometry x="4470" y="940" width="180" height="60" as="geometry" />
        </mxCell>
        <mxCell id="VSbkhnIBNn_-im1Td6wS-44" value="&lt;span style=&quot;font-size: 14px;&quot;&gt;Csapatnév&lt;/span&gt;" style="ellipse;whiteSpace=wrap;html=1;align=center;" vertex="1" parent="1">
          <mxGeometry x="3790" y="940" width="180" height="60" as="geometry" />
        </mxCell>
        <mxCell id="VSbkhnIBNn_-im1Td6wS-45" value="&lt;span style=&quot;font-size: 14px;&quot;&gt;Poszt&lt;/span&gt;" style="ellipse;shape=doubleEllipse;margin=3;whiteSpace=wrap;html=1;align=center;" vertex="1" parent="1">
          <mxGeometry x="1470" y="940" width="180" height="60" as="geometry" />
        </mxCell>
        <mxCell id="VSbkhnIBNn_-im1Td6wS-46" value="&lt;span style=&quot;font-size: 14px;&quot;&gt;Színek&lt;/span&gt;" style="ellipse;shape=doubleEllipse;margin=3;whiteSpace=wrap;html=1;align=center;" vertex="1" parent="1">
          <mxGeometry x="2895" y="940" width="180" height="60" as="geometry" />
        </mxCell>
        <mxCell id="VSbkhnIBNn_-im1Td6wS-47" value="" style="endArrow=none;html=1;rounded=0;exitX=0.5;exitY=0;exitDx=0;exitDy=0;entryX=0.5;entryY=1;entryDx=0;entryDy=0;" edge="1" parent="1" source="VSbkhnIBNn_-im1Td6wS-21" target="VSbkhnIBNn_-im1Td6wS-20">
          <mxGeometry relative="1" as="geometry">
            <mxPoint x="1730" y="1030" as="sourcePoint" />
            <mxPoint x="1890" y="1030" as="targetPoint" />
          </mxGeometry>
        </mxCell>
        <mxCell id="VSbkhnIBNn_-im1Td6wS-48" value="" style="endArrow=none;html=1;rounded=0;exitX=0.5;exitY=1;exitDx=0;exitDy=0;entryX=0.5;entryY=0;entryDx=0;entryDy=0;" edge="1" parent="1" source="VSbkhnIBNn_-im1Td6wS-20" target="VSbkhnIBNn_-im1Td6wS-38">
          <mxGeometry relative="1" as="geometry">
            <mxPoint x="1830" y="1060" as="sourcePoint" />
            <mxPoint x="1960" y="970" as="targetPoint" />
          </mxGeometry>
        </mxCell>
        <mxCell id="VSbkhnIBNn_-im1Td6wS-49" value="&lt;font style=&quot;font-size: 14px;&quot;&gt;CSkód&lt;/font&gt;" style="shape=rhombus;perimeter=rhombusPerimeter;whiteSpace=wrap;html=1;align=center;" vertex="1" parent="1">
          <mxGeometry x="2440" y="930" width="90" height="80" as="geometry" />
        </mxCell>
        <mxCell id="VSbkhnIBNn_-im1Td6wS-50" value="" style="endArrow=none;html=1;rounded=0;dashed=1;" edge="1" parent="1">
          <mxGeometry relative="1" as="geometry">
            <mxPoint x="2465" y="979.81" as="sourcePoint" />
            <mxPoint x="2505" y="979.81" as="targetPoint" />
          </mxGeometry>
        </mxCell>
        <mxCell id="VSbkhnIBNn_-im1Td6wS-51" value="" style="rounded=0;whiteSpace=wrap;html=1;" vertex="1" parent="1">
          <mxGeometry x="1545" y="1030" width="30" height="60" as="geometry" />
        </mxCell>
        <mxCell id="VSbkhnIBNn_-im1Td6wS-52" value="" style="rounded=0;whiteSpace=wrap;html=1;" vertex="1" parent="1">
          <mxGeometry x="1655" y="1200" width="30" height="60" as="geometry" />
        </mxCell>
        <mxCell id="VSbkhnIBNn_-im1Td6wS-53" value="" style="rounded=0;whiteSpace=wrap;html=1;" vertex="1" parent="1">
          <mxGeometry x="1850" y="1200" width="30" height="60" as="geometry" />
        </mxCell>
        <mxCell id="VSbkhnIBNn_-im1Td6wS-54" value="" style="rounded=0;whiteSpace=wrap;html=1;" vertex="1" parent="1">
          <mxGeometry x="1940" y="1030" width="30" height="60" as="geometry" />
        </mxCell>
        <mxCell id="VSbkhnIBNn_-im1Td6wS-55" value="" style="rounded=0;whiteSpace=wrap;html=1;" vertex="1" parent="1">
          <mxGeometry x="2125" y="1030" width="30" height="60" as="geometry" />
        </mxCell>
        <mxCell id="VSbkhnIBNn_-im1Td6wS-56" value="" style="rounded=0;whiteSpace=wrap;html=1;" vertex="1" parent="1">
          <mxGeometry x="2320" y="1030" width="30" height="60" as="geometry" />
        </mxCell>
        <mxCell id="VSbkhnIBNn_-im1Td6wS-57" value="" style="rounded=0;whiteSpace=wrap;html=1;" vertex="1" parent="1">
          <mxGeometry x="3635" y="1030" width="30" height="60" as="geometry" />
        </mxCell>
        <mxCell id="VSbkhnIBNn_-im1Td6wS-58" value="" style="rounded=0;whiteSpace=wrap;html=1;" vertex="1" parent="1">
          <mxGeometry x="3195" y="1030" width="30" height="60" as="geometry" />
        </mxCell>
        <mxCell id="VSbkhnIBNn_-im1Td6wS-59" value="" style="endArrow=none;html=1;rounded=0;entryX=0.5;entryY=1;entryDx=0;entryDy=0;exitX=0.5;exitY=0;exitDx=0;exitDy=0;" edge="1" parent="1" source="VSbkhnIBNn_-im1Td6wS-51" target="VSbkhnIBNn_-im1Td6wS-45">
          <mxGeometry relative="1" as="geometry">
            <mxPoint x="1350" y="1109.26" as="sourcePoint" />
            <mxPoint x="1540" y="1020" as="targetPoint" />
          </mxGeometry>
        </mxCell>
        <mxCell id="VSbkhnIBNn_-im1Td6wS-60" value="" style="endArrow=none;html=1;rounded=0;entryX=0.5;entryY=1;entryDx=0;entryDy=0;exitX=0.5;exitY=0;exitDx=0;exitDy=0;" edge="1" parent="1" source="VSbkhnIBNn_-im1Td6wS-52" target="VSbkhnIBNn_-im1Td6wS-21">
          <mxGeometry relative="1" as="geometry">
            <mxPoint x="1490" y="1180" as="sourcePoint" />
            <mxPoint x="1650" y="1180" as="targetPoint" />
          </mxGeometry>
        </mxCell>
        <mxCell id="VSbkhnIBNn_-im1Td6wS-61" value="" style="endArrow=none;html=1;rounded=0;exitX=0.5;exitY=1;exitDx=0;exitDy=0;entryX=0.5;entryY=0;entryDx=0;entryDy=0;" edge="1" parent="1" source="VSbkhnIBNn_-im1Td6wS-10" target="VSbkhnIBNn_-im1Td6wS-54">
          <mxGeometry relative="1" as="geometry">
            <mxPoint x="1970" y="1139.38" as="sourcePoint" />
            <mxPoint x="2130" y="1139.38" as="targetPoint" />
          </mxGeometry>
        </mxCell>
        <mxCell id="VSbkhnIBNn_-im1Td6wS-62" value="" style="endArrow=none;html=1;rounded=0;exitX=0.5;exitY=1;exitDx=0;exitDy=0;entryX=0.5;entryY=0;entryDx=0;entryDy=0;" edge="1" parent="1" source="VSbkhnIBNn_-im1Td6wS-18" target="VSbkhnIBNn_-im1Td6wS-55">
          <mxGeometry relative="1" as="geometry">
            <mxPoint x="2010" y="1129.38" as="sourcePoint" />
            <mxPoint x="2170" y="1129.38" as="targetPoint" />
          </mxGeometry>
        </mxCell>
        <mxCell id="VSbkhnIBNn_-im1Td6wS-63" value="" style="endArrow=none;html=1;rounded=0;entryX=0;entryY=0.5;entryDx=0;entryDy=0;exitX=0.5;exitY=0;exitDx=0;exitDy=0;" edge="1" parent="1" source="VSbkhnIBNn_-im1Td6wS-9" target="VSbkhnIBNn_-im1Td6wS-8">
          <mxGeometry relative="1" as="geometry">
            <mxPoint x="1655" y="840" as="sourcePoint" />
            <mxPoint x="1815" y="840" as="targetPoint" />
          </mxGeometry>
        </mxCell>
        <mxCell id="VSbkhnIBNn_-im1Td6wS-64" value="" style="endArrow=none;html=1;rounded=0;exitX=0.5;exitY=0;exitDx=0;exitDy=0;entryX=0.037;entryY=0.687;entryDx=0;entryDy=0;entryPerimeter=0;" edge="1" parent="1" source="VSbkhnIBNn_-im1Td6wS-45" target="VSbkhnIBNn_-im1Td6wS-8">
          <mxGeometry relative="1" as="geometry">
            <mxPoint x="1690" y="890" as="sourcePoint" />
            <mxPoint x="1850" y="890" as="targetPoint" />
          </mxGeometry>
        </mxCell>
        <mxCell id="VSbkhnIBNn_-im1Td6wS-65" value="" style="endArrow=none;html=1;rounded=0;exitX=1;exitY=0.5;exitDx=0;exitDy=0;entryX=0.5;entryY=0;entryDx=0;entryDy=0;" edge="1" parent="1" source="VSbkhnIBNn_-im1Td6wS-3" target="VSbkhnIBNn_-im1Td6wS-152">
          <mxGeometry relative="1" as="geometry">
            <mxPoint x="4710" y="889.9999999999999" as="sourcePoint" />
            <mxPoint x="4870" y="889.9999999999999" as="targetPoint" />
          </mxGeometry>
        </mxCell>
        <mxCell id="VSbkhnIBNn_-im1Td6wS-66" value="" style="endArrow=none;html=1;rounded=0;entryX=0.5;entryY=0;entryDx=0;entryDy=0;exitX=1;exitY=0.5;exitDx=0;exitDy=0;" edge="1" parent="1" source="VSbkhnIBNn_-im1Td6wS-8" target="VSbkhnIBNn_-im1Td6wS-49">
          <mxGeometry relative="1" as="geometry">
            <mxPoint x="2255" y="869.63" as="sourcePoint" />
            <mxPoint x="2415" y="869.63" as="targetPoint" />
          </mxGeometry>
        </mxCell>
        <mxCell id="VSbkhnIBNn_-im1Td6wS-67" value="" style="endArrow=none;html=1;rounded=0;exitX=0.931;exitY=0.748;exitDx=0;exitDy=0;exitPerimeter=0;entryX=0.5;entryY=0;entryDx=0;entryDy=0;" edge="1" parent="1" source="VSbkhnIBNn_-im1Td6wS-8" target="VSbkhnIBNn_-im1Td6wS-19">
          <mxGeometry relative="1" as="geometry">
            <mxPoint x="2230" y="890" as="sourcePoint" />
            <mxPoint x="2390" y="890" as="targetPoint" />
          </mxGeometry>
        </mxCell>
        <mxCell id="VSbkhnIBNn_-im1Td6wS-68" value="" style="endArrow=none;html=1;rounded=0;exitX=0.5;exitY=1;exitDx=0;exitDy=0;entryX=0.5;entryY=0;entryDx=0;entryDy=0;" edge="1" parent="1" source="VSbkhnIBNn_-im1Td6wS-19" target="VSbkhnIBNn_-im1Td6wS-56">
          <mxGeometry relative="1" as="geometry">
            <mxPoint x="2170" y="1069.69" as="sourcePoint" />
            <mxPoint x="2330" y="1069.69" as="targetPoint" />
          </mxGeometry>
        </mxCell>
        <mxCell id="VSbkhnIBNn_-im1Td6wS-69" value="" style="endArrow=none;html=1;rounded=0;entryX=0.5;entryY=0;entryDx=0;entryDy=0;exitX=1;exitY=1;exitDx=0;exitDy=0;" edge="1" parent="1" source="VSbkhnIBNn_-im1Td6wS-8" target="VSbkhnIBNn_-im1Td6wS-18">
          <mxGeometry relative="1" as="geometry">
            <mxPoint x="2110" y="890" as="sourcePoint" />
            <mxPoint x="2270" y="890" as="targetPoint" />
          </mxGeometry>
        </mxCell>
        <mxCell id="VSbkhnIBNn_-im1Td6wS-70" value="" style="endArrow=none;html=1;rounded=0;exitX=0.5;exitY=1;exitDx=0;exitDy=0;entryX=0.5;entryY=0;entryDx=0;entryDy=0;" edge="1" parent="1" source="VSbkhnIBNn_-im1Td6wS-8" target="VSbkhnIBNn_-im1Td6wS-10">
          <mxGeometry relative="1" as="geometry">
            <mxPoint x="1910" y="899.38" as="sourcePoint" />
            <mxPoint x="2070" y="899.38" as="targetPoint" />
          </mxGeometry>
        </mxCell>
        <mxCell id="VSbkhnIBNn_-im1Td6wS-71" value="" style="endArrow=none;html=1;rounded=0;entryX=0;entryY=1;entryDx=0;entryDy=0;exitX=0.5;exitY=0;exitDx=0;exitDy=0;" edge="1" parent="1" source="VSbkhnIBNn_-im1Td6wS-20" target="VSbkhnIBNn_-im1Td6wS-8">
          <mxGeometry relative="1" as="geometry">
            <mxPoint x="1740" y="900" as="sourcePoint" />
            <mxPoint x="1900" y="900" as="targetPoint" />
          </mxGeometry>
        </mxCell>
        <mxCell id="VSbkhnIBNn_-im1Td6wS-72" value="" style="endArrow=none;html=1;rounded=0;exitX=0.5;exitY=1;exitDx=0;exitDy=0;entryX=0.5;entryY=0;entryDx=0;entryDy=0;" edge="1" parent="1" source="VSbkhnIBNn_-im1Td6wS-3" target="VSbkhnIBNn_-im1Td6wS-43">
          <mxGeometry relative="1" as="geometry">
            <mxPoint x="4257.5" y="1201" as="sourcePoint" />
            <mxPoint x="4417.5" y="1201" as="targetPoint" />
          </mxGeometry>
        </mxCell>
        <mxCell id="VSbkhnIBNn_-im1Td6wS-73" value="" style="endArrow=none;html=1;rounded=0;exitX=0.5;exitY=1;exitDx=0;exitDy=0;entryX=0.5;entryY=0;entryDx=0;entryDy=0;" edge="1" parent="1" source="VSbkhnIBNn_-im1Td6wS-38" target="VSbkhnIBNn_-im1Td6wS-53">
          <mxGeometry relative="1" as="geometry">
            <mxPoint x="1740" y="1310" as="sourcePoint" />
            <mxPoint x="1900" y="1310" as="targetPoint" />
          </mxGeometry>
        </mxCell>
        <mxCell id="VSbkhnIBNn_-im1Td6wS-74" value="" style="endArrow=none;html=1;rounded=0;exitX=0.5;exitY=1;exitDx=0;exitDy=0;entryX=0.5;entryY=0;entryDx=0;entryDy=0;" edge="1" parent="1" source="VSbkhnIBNn_-im1Td6wS-22" target="VSbkhnIBNn_-im1Td6wS-122">
          <mxGeometry relative="1" as="geometry">
            <mxPoint x="460" y="1099.43" as="sourcePoint" />
            <mxPoint x="620" y="1099.43" as="targetPoint" />
          </mxGeometry>
        </mxCell>
        <mxCell id="VSbkhnIBNn_-im1Td6wS-75" value="" style="endArrow=none;html=1;rounded=0;exitX=0.5;exitY=1;exitDx=0;exitDy=0;entryX=0.5;entryY=0;entryDx=0;entryDy=0;" edge="1" parent="1" source="VSbkhnIBNn_-im1Td6wS-23" target="VSbkhnIBNn_-im1Td6wS-120">
          <mxGeometry relative="1" as="geometry">
            <mxPoint x="450" y="1069.8" as="sourcePoint" />
            <mxPoint x="610" y="1069.8" as="targetPoint" />
          </mxGeometry>
        </mxCell>
        <mxCell id="VSbkhnIBNn_-im1Td6wS-76" value="" style="endArrow=none;html=1;rounded=0;entryX=0.012;entryY=0.619;entryDx=0;entryDy=0;entryPerimeter=0;exitX=0.5;exitY=0;exitDx=0;exitDy=0;" edge="1" parent="1" source="VSbkhnIBNn_-im1Td6wS-22" target="VSbkhnIBNn_-im1Td6wS-6">
          <mxGeometry relative="1" as="geometry">
            <mxPoint x="510" y="910" as="sourcePoint" />
            <mxPoint x="670" y="910" as="targetPoint" />
          </mxGeometry>
        </mxCell>
        <mxCell id="VSbkhnIBNn_-im1Td6wS-77" value="" style="endArrow=none;html=1;rounded=0;exitX=0.5;exitY=0;exitDx=0;exitDy=0;entryX=0;entryY=1;entryDx=0;entryDy=0;" edge="1" parent="1" source="VSbkhnIBNn_-im1Td6wS-23" target="VSbkhnIBNn_-im1Td6wS-6">
          <mxGeometry relative="1" as="geometry">
            <mxPoint x="720" y="910" as="sourcePoint" />
            <mxPoint x="880" y="910" as="targetPoint" />
          </mxGeometry>
        </mxCell>
        <mxCell id="VSbkhnIBNn_-im1Td6wS-78" value="" style="endArrow=none;html=1;rounded=0;exitX=0.5;exitY=1;exitDx=0;exitDy=0;entryX=0.5;entryY=0;entryDx=0;entryDy=0;" edge="1" parent="1" source="VSbkhnIBNn_-im1Td6wS-6" target="VSbkhnIBNn_-im1Td6wS-26">
          <mxGeometry relative="1" as="geometry">
            <mxPoint x="940" y="900" as="sourcePoint" />
            <mxPoint x="1100" y="900" as="targetPoint" />
          </mxGeometry>
        </mxCell>
        <mxCell id="VSbkhnIBNn_-im1Td6wS-79" value="" style="endArrow=none;html=1;rounded=0;exitX=0.959;exitY=0.694;exitDx=0;exitDy=0;exitPerimeter=0;entryX=0.5;entryY=0;entryDx=0;entryDy=0;" edge="1" parent="1" source="VSbkhnIBNn_-im1Td6wS-6" target="VSbkhnIBNn_-im1Td6wS-144">
          <mxGeometry relative="1" as="geometry">
            <mxPoint x="990" y="900" as="sourcePoint" />
            <mxPoint x="1150" y="900" as="targetPoint" />
          </mxGeometry>
        </mxCell>
        <mxCell id="VSbkhnIBNn_-im1Td6wS-80" value="" style="endArrow=none;html=1;rounded=0;exitX=1;exitY=0.5;exitDx=0;exitDy=0;entryX=0.5;entryY=0;entryDx=0;entryDy=0;" edge="1" parent="1" source="VSbkhnIBNn_-im1Td6wS-6" target="VSbkhnIBNn_-im1Td6wS-145">
          <mxGeometry relative="1" as="geometry">
            <mxPoint x="1060" y="880" as="sourcePoint" />
            <mxPoint x="1220" y="880" as="targetPoint" />
          </mxGeometry>
        </mxCell>
        <mxCell id="VSbkhnIBNn_-im1Td6wS-81" value="" style="endArrow=none;html=1;rounded=0;exitX=0.5;exitY=0;exitDx=0;exitDy=0;entryX=0;entryY=0.5;entryDx=0;entryDy=0;" edge="1" parent="1" source="VSbkhnIBNn_-im1Td6wS-11" target="VSbkhnIBNn_-im1Td6wS-5">
          <mxGeometry relative="1" as="geometry">
            <mxPoint x="2750" y="870" as="sourcePoint" />
            <mxPoint x="2910" y="870" as="targetPoint" />
          </mxGeometry>
        </mxCell>
        <mxCell id="VSbkhnIBNn_-im1Td6wS-82" value="" style="endArrow=none;html=1;rounded=0;entryX=0.5;entryY=1;entryDx=0;entryDy=0;exitX=0.5;exitY=0;exitDx=0;exitDy=0;" edge="1" parent="1" source="VSbkhnIBNn_-im1Td6wS-46" target="VSbkhnIBNn_-im1Td6wS-5">
          <mxGeometry relative="1" as="geometry">
            <mxPoint x="2850" y="1079" as="sourcePoint" />
            <mxPoint x="3010" y="1079" as="targetPoint" />
          </mxGeometry>
        </mxCell>
        <mxCell id="VSbkhnIBNn_-im1Td6wS-83" value="" style="endArrow=none;html=1;rounded=0;exitX=1;exitY=0.5;exitDx=0;exitDy=0;entryX=0.5;entryY=0;entryDx=0;entryDy=0;" edge="1" parent="1" source="VSbkhnIBNn_-im1Td6wS-5" target="VSbkhnIBNn_-im1Td6wS-39">
          <mxGeometry relative="1" as="geometry">
            <mxPoint x="3085" y="900" as="sourcePoint" />
            <mxPoint x="3245" y="900" as="targetPoint" />
          </mxGeometry>
        </mxCell>
        <mxCell id="VSbkhnIBNn_-im1Td6wS-84" value="" style="endArrow=none;html=1;rounded=0;exitX=0.5;exitY=1;exitDx=0;exitDy=0;entryX=0.5;entryY=0;entryDx=0;entryDy=0;" edge="1" parent="1" source="VSbkhnIBNn_-im1Td6wS-27" target="VSbkhnIBNn_-im1Td6wS-57">
          <mxGeometry relative="1" as="geometry">
            <mxPoint x="3370" y="1079.5" as="sourcePoint" />
            <mxPoint x="3530" y="1079.5" as="targetPoint" />
          </mxGeometry>
        </mxCell>
        <mxCell id="VSbkhnIBNn_-im1Td6wS-85" value="" style="endArrow=none;html=1;rounded=0;entryX=0.5;entryY=0;entryDx=0;entryDy=0;exitX=0;exitY=0.5;exitDx=0;exitDy=0;" edge="1" parent="1" source="VSbkhnIBNn_-im1Td6wS-2" target="VSbkhnIBNn_-im1Td6wS-16">
          <mxGeometry relative="1" as="geometry">
            <mxPoint x="5680" y="890" as="sourcePoint" />
            <mxPoint x="5840" y="890" as="targetPoint" />
          </mxGeometry>
        </mxCell>
        <mxCell id="VSbkhnIBNn_-im1Td6wS-86" value="" style="endArrow=none;html=1;rounded=0;exitX=0.5;exitY=1;exitDx=0;exitDy=0;entryX=0.5;entryY=0;entryDx=0;entryDy=0;" edge="1" parent="1" source="VSbkhnIBNn_-im1Td6wS-25" target="VSbkhnIBNn_-im1Td6wS-138">
          <mxGeometry relative="1" as="geometry">
            <mxPoint x="5790" y="1150" as="sourcePoint" />
            <mxPoint x="5950" y="1150" as="targetPoint" />
          </mxGeometry>
        </mxCell>
        <mxCell id="VSbkhnIBNn_-im1Td6wS-87" value="" style="endArrow=none;html=1;rounded=0;exitX=0.5;exitY=1;exitDx=0;exitDy=0;entryX=0.5;entryY=0;entryDx=0;entryDy=0;" edge="1" parent="1" source="VSbkhnIBNn_-im1Td6wS-26" target="VSbkhnIBNn_-im1Td6wS-123">
          <mxGeometry relative="1" as="geometry">
            <mxPoint x="775" y="1220" as="sourcePoint" />
            <mxPoint x="935" y="1220" as="targetPoint" />
          </mxGeometry>
        </mxCell>
        <mxCell id="VSbkhnIBNn_-im1Td6wS-88" value="" style="endArrow=none;html=1;rounded=0;entryX=0;entryY=0.5;entryDx=0;entryDy=0;exitX=0.5;exitY=0;exitDx=0;exitDy=0;" edge="1" parent="1" source="VSbkhnIBNn_-im1Td6wS-15" target="VSbkhnIBNn_-im1Td6wS-6">
          <mxGeometry relative="1" as="geometry">
            <mxPoint x="420" y="860" as="sourcePoint" />
            <mxPoint x="580" y="860" as="targetPoint" />
          </mxGeometry>
        </mxCell>
        <mxCell id="VSbkhnIBNn_-im1Td6wS-89" value="" style="endArrow=none;html=1;rounded=0;exitX=0.5;exitY=1;exitDx=0;exitDy=0;entryX=0.5;entryY=0;entryDx=0;entryDy=0;" edge="1" parent="1" source="VSbkhnIBNn_-im1Td6wS-44" target="VSbkhnIBNn_-im1Td6wS-119">
          <mxGeometry relative="1" as="geometry">
            <mxPoint x="3685" y="1140" as="sourcePoint" />
            <mxPoint x="3845" y="1140" as="targetPoint" />
          </mxGeometry>
        </mxCell>
        <mxCell id="VSbkhnIBNn_-im1Td6wS-90" value="" style="endArrow=none;html=1;rounded=0;entryX=0;entryY=0.5;entryDx=0;entryDy=0;exitX=0.5;exitY=0;exitDx=0;exitDy=0;" edge="1" parent="1" source="VSbkhnIBNn_-im1Td6wS-12" target="VSbkhnIBNn_-im1Td6wS-7">
          <mxGeometry relative="1" as="geometry">
            <mxPoint x="3340" y="820" as="sourcePoint" />
            <mxPoint x="3500" y="820" as="targetPoint" />
          </mxGeometry>
        </mxCell>
        <mxCell id="VSbkhnIBNn_-im1Td6wS-91" value="" style="endArrow=none;html=1;rounded=0;exitX=0.5;exitY=1;exitDx=0;exitDy=0;entryX=0.5;entryY=0;entryDx=0;entryDy=0;" edge="1" parent="1" source="VSbkhnIBNn_-im1Td6wS-7" target="VSbkhnIBNn_-im1Td6wS-27">
          <mxGeometry relative="1" as="geometry">
            <mxPoint x="3135" y="1200.72" as="sourcePoint" />
            <mxPoint x="3295" y="1200.72" as="targetPoint" />
          </mxGeometry>
        </mxCell>
        <mxCell id="VSbkhnIBNn_-im1Td6wS-92" value="" style="endArrow=none;html=1;rounded=0;exitX=1;exitY=0.5;exitDx=0;exitDy=0;entryX=0.5;entryY=0;entryDx=0;entryDy=0;" edge="1" parent="1" source="VSbkhnIBNn_-im1Td6wS-7" target="VSbkhnIBNn_-im1Td6wS-44">
          <mxGeometry relative="1" as="geometry">
            <mxPoint x="3850" y="900" as="sourcePoint" />
            <mxPoint x="4010" y="900" as="targetPoint" />
          </mxGeometry>
        </mxCell>
        <mxCell id="VSbkhnIBNn_-im1Td6wS-93" value="" style="endArrow=none;html=1;rounded=0;exitX=0.5;exitY=0;exitDx=0;exitDy=0;entryX=0;entryY=0.5;entryDx=0;entryDy=0;" edge="1" parent="1" source="VSbkhnIBNn_-im1Td6wS-13" target="VSbkhnIBNn_-im1Td6wS-3">
          <mxGeometry relative="1" as="geometry">
            <mxPoint x="4300" y="889.29" as="sourcePoint" />
            <mxPoint x="4460" y="889.29" as="targetPoint" />
          </mxGeometry>
        </mxCell>
        <mxCell id="VSbkhnIBNn_-im1Td6wS-94" value="" style="endArrow=none;html=1;rounded=0;entryX=0.5;entryY=1;entryDx=0;entryDy=0;exitX=0.5;exitY=0;exitDx=0;exitDy=0;" edge="1" parent="1" source="VSbkhnIBNn_-im1Td6wS-121" target="VSbkhnIBNn_-im1Td6wS-46">
          <mxGeometry relative="1" as="geometry">
            <mxPoint x="2750" y="1105" as="sourcePoint" />
            <mxPoint x="2910" y="1105" as="targetPoint" />
          </mxGeometry>
        </mxCell>
        <mxCell id="VSbkhnIBNn_-im1Td6wS-95" value="" style="endArrow=none;html=1;rounded=0;exitX=0.5;exitY=1;exitDx=0;exitDy=0;entryX=0.5;entryY=0;entryDx=0;entryDy=0;" edge="1" parent="1" source="VSbkhnIBNn_-im1Td6wS-39" target="VSbkhnIBNn_-im1Td6wS-58">
          <mxGeometry relative="1" as="geometry">
            <mxPoint x="2990" y="1190" as="sourcePoint" />
            <mxPoint x="3150" y="1190" as="targetPoint" />
          </mxGeometry>
        </mxCell>
        <mxCell id="VSbkhnIBNn_-im1Td6wS-96" value="" style="endArrow=none;html=1;rounded=0;entryX=0.053;entryY=0.731;entryDx=0;entryDy=0;entryPerimeter=0;exitX=0.5;exitY=0;exitDx=0;exitDy=0;" edge="1" parent="1" source="VSbkhnIBNn_-im1Td6wS-42" target="VSbkhnIBNn_-im1Td6wS-3">
          <mxGeometry relative="1" as="geometry">
            <mxPoint x="4322.5" y="1121" as="sourcePoint" />
            <mxPoint x="4482.5" y="1121" as="targetPoint" />
          </mxGeometry>
        </mxCell>
        <mxCell id="VSbkhnIBNn_-im1Td6wS-97" value="" style="endArrow=none;html=1;rounded=0;exitX=0.893;exitY=0.806;exitDx=0;exitDy=0;entryX=0.5;entryY=0;entryDx=0;entryDy=0;exitPerimeter=0;" edge="1" parent="1" source="VSbkhnIBNn_-im1Td6wS-3" target="VSbkhnIBNn_-im1Td6wS-154">
          <mxGeometry relative="1" as="geometry">
            <mxPoint x="4750" y="890" as="sourcePoint" />
            <mxPoint x="4910" y="890" as="targetPoint" />
          </mxGeometry>
        </mxCell>
        <mxCell id="VSbkhnIBNn_-im1Td6wS-98" value="" style="endArrow=none;html=1;rounded=0;exitX=0.676;exitY=0.97;exitDx=0;exitDy=0;exitPerimeter=0;entryX=0.5;entryY=0;entryDx=0;entryDy=0;" edge="1" parent="1" source="VSbkhnIBNn_-im1Td6wS-17" target="VSbkhnIBNn_-im1Td6wS-148">
          <mxGeometry relative="1" as="geometry">
            <mxPoint x="5320" y="930" as="sourcePoint" />
            <mxPoint x="5480" y="930" as="targetPoint" />
          </mxGeometry>
        </mxCell>
        <mxCell id="VSbkhnIBNn_-im1Td6wS-99" value="" style="endArrow=none;html=1;rounded=0;exitX=0.5;exitY=0;exitDx=0;exitDy=0;entryX=0.96;entryY=0.703;entryDx=0;entryDy=0;entryPerimeter=0;" edge="1" parent="1" source="VSbkhnIBNn_-im1Td6wS-156" target="VSbkhnIBNn_-im1Td6wS-17">
          <mxGeometry relative="1" as="geometry">
            <mxPoint x="5410" y="910" as="sourcePoint" />
            <mxPoint x="5570" y="910" as="targetPoint" />
          </mxGeometry>
        </mxCell>
        <mxCell id="VSbkhnIBNn_-im1Td6wS-100" value="" style="endArrow=none;html=1;rounded=0;exitX=0.5;exitY=1;exitDx=0;exitDy=0;entryX=0.5;entryY=0;entryDx=0;entryDy=0;" edge="1" parent="1" source="VSbkhnIBNn_-im1Td6wS-41" target="VSbkhnIBNn_-im1Td6wS-129">
          <mxGeometry relative="1" as="geometry">
            <mxPoint x="5090" y="1050" as="sourcePoint" />
            <mxPoint x="5250" y="1050" as="targetPoint" />
          </mxGeometry>
        </mxCell>
        <mxCell id="VSbkhnIBNn_-im1Td6wS-101" value="" style="endArrow=none;html=1;rounded=0;exitX=0.5;exitY=1;exitDx=0;exitDy=0;entryX=0.5;entryY=0;entryDx=0;entryDy=0;" edge="1" parent="1" source="VSbkhnIBNn_-im1Td6wS-42" target="VSbkhnIBNn_-im1Td6wS-140">
          <mxGeometry relative="1" as="geometry">
            <mxPoint x="4190" y="1150" as="sourcePoint" />
            <mxPoint x="4350" y="1150" as="targetPoint" />
          </mxGeometry>
        </mxCell>
        <mxCell id="VSbkhnIBNn_-im1Td6wS-102" value="" style="endArrow=none;html=1;rounded=0;exitX=0.5;exitY=1;exitDx=0;exitDy=0;entryX=0.5;entryY=0;entryDx=0;entryDy=0;" edge="1" parent="1" source="VSbkhnIBNn_-im1Td6wS-43" target="VSbkhnIBNn_-im1Td6wS-139">
          <mxGeometry relative="1" as="geometry">
            <mxPoint x="4390" y="1140" as="sourcePoint" />
            <mxPoint x="4550" y="1140" as="targetPoint" />
          </mxGeometry>
        </mxCell>
        <mxCell id="VSbkhnIBNn_-im1Td6wS-103" value="" style="endArrow=none;html=1;rounded=0;exitX=0.5;exitY=0;exitDx=0;exitDy=0;entryX=0.042;entryY=0.675;entryDx=0;entryDy=0;entryPerimeter=0;" edge="1" parent="1" source="VSbkhnIBNn_-im1Td6wS-41" target="VSbkhnIBNn_-im1Td6wS-17">
          <mxGeometry relative="1" as="geometry">
            <mxPoint x="4980" y="890" as="sourcePoint" />
            <mxPoint x="5140" y="890" as="targetPoint" />
          </mxGeometry>
        </mxCell>
        <mxCell id="VSbkhnIBNn_-im1Td6wS-104" value="" style="endArrow=none;html=1;rounded=0;exitX=0.329;exitY=0.981;exitDx=0;exitDy=0;exitPerimeter=0;entryX=0.5;entryY=0;entryDx=0;entryDy=0;" edge="1" parent="1" source="VSbkhnIBNn_-im1Td6wS-17" target="VSbkhnIBNn_-im1Td6wS-150">
          <mxGeometry relative="1" as="geometry">
            <mxPoint x="5165" y="920" as="sourcePoint" />
            <mxPoint x="5325" y="920" as="targetPoint" />
          </mxGeometry>
        </mxCell>
        <mxCell id="VSbkhnIBNn_-im1Td6wS-105" value="" style="endArrow=none;html=1;rounded=0;entryX=0.5;entryY=1;entryDx=0;entryDy=0;exitX=0.5;exitY=0;exitDx=0;exitDy=0;" edge="1" parent="1" source="VSbkhnIBNn_-im1Td6wS-141" target="VSbkhnIBNn_-im1Td6wS-28">
          <mxGeometry relative="1" as="geometry">
            <mxPoint x="5890" y="1159.29" as="sourcePoint" />
            <mxPoint x="6050" y="1159.29" as="targetPoint" />
          </mxGeometry>
        </mxCell>
        <mxCell id="VSbkhnIBNn_-im1Td6wS-106" value="" style="endArrow=none;html=1;rounded=0;exitX=0.5;exitY=1;exitDx=0;exitDy=0;entryX=0.5;entryY=0;entryDx=0;entryDy=0;" edge="1" parent="1" source="VSbkhnIBNn_-im1Td6wS-40" target="VSbkhnIBNn_-im1Td6wS-137">
          <mxGeometry relative="1" as="geometry">
            <mxPoint x="6230" y="1120" as="sourcePoint" />
            <mxPoint x="6390" y="1120" as="targetPoint" />
          </mxGeometry>
        </mxCell>
        <mxCell id="VSbkhnIBNn_-im1Td6wS-107" value="" style="endArrow=none;html=1;rounded=0;entryX=0;entryY=1;entryDx=0;entryDy=0;exitX=0.5;exitY=0;exitDx=0;exitDy=0;" edge="1" parent="1" source="VSbkhnIBNn_-im1Td6wS-25" target="VSbkhnIBNn_-im1Td6wS-24">
          <mxGeometry relative="1" as="geometry">
            <mxPoint x="5735" y="1040" as="sourcePoint" />
            <mxPoint x="5895" y="1040" as="targetPoint" />
          </mxGeometry>
        </mxCell>
        <mxCell id="VSbkhnIBNn_-im1Td6wS-108" value="" style="endArrow=none;html=1;rounded=0;exitX=1;exitY=1;exitDx=0;exitDy=0;entryX=0.5;entryY=0;entryDx=0;entryDy=0;" edge="1" parent="1" source="VSbkhnIBNn_-im1Td6wS-24" target="VSbkhnIBNn_-im1Td6wS-28">
          <mxGeometry relative="1" as="geometry">
            <mxPoint x="5945" y="1040" as="sourcePoint" />
            <mxPoint x="6105" y="1040" as="targetPoint" />
          </mxGeometry>
        </mxCell>
        <mxCell id="VSbkhnIBNn_-im1Td6wS-109" value="" style="endArrow=none;html=1;rounded=0;exitX=1;exitY=0.5;exitDx=0;exitDy=0;entryX=0.5;entryY=0;entryDx=0;entryDy=0;" edge="1" parent="1" source="VSbkhnIBNn_-im1Td6wS-2" target="VSbkhnIBNn_-im1Td6wS-40">
          <mxGeometry relative="1" as="geometry">
            <mxPoint x="6130" y="910" as="sourcePoint" />
            <mxPoint x="6290" y="910" as="targetPoint" />
          </mxGeometry>
        </mxCell>
        <mxCell id="VSbkhnIBNn_-im1Td6wS-110" value="" style="endArrow=none;html=1;rounded=0;exitX=0.5;exitY=1;exitDx=0;exitDy=0;entryX=0.5;entryY=0;entryDx=0;entryDy=0;" edge="1" parent="1" source="VSbkhnIBNn_-im1Td6wS-2" target="VSbkhnIBNn_-im1Td6wS-24">
          <mxGeometry relative="1" as="geometry">
            <mxPoint x="5940" y="920" as="sourcePoint" />
            <mxPoint x="6100" y="920" as="targetPoint" />
          </mxGeometry>
        </mxCell>
        <mxCell id="VSbkhnIBNn_-im1Td6wS-111" value="" style="endArrow=none;html=1;rounded=0;exitX=0.5;exitY=0;exitDx=0;exitDy=0;entryX=0;entryY=1;entryDx=0;entryDy=0;" edge="1" parent="1" source="VSbkhnIBNn_-im1Td6wS-14" target="VSbkhnIBNn_-im1Td6wS-4">
          <mxGeometry relative="1" as="geometry">
            <mxPoint x="6910" y="950" as="sourcePoint" />
            <mxPoint x="7070" y="950" as="targetPoint" />
          </mxGeometry>
        </mxCell>
        <mxCell id="VSbkhnIBNn_-im1Td6wS-112" value="" style="endArrow=none;html=1;rounded=0;exitX=1;exitY=1;exitDx=0;exitDy=0;entryX=0.5;entryY=0;entryDx=0;entryDy=0;" edge="1" parent="1" source="VSbkhnIBNn_-im1Td6wS-4" target="VSbkhnIBNn_-im1Td6wS-29">
          <mxGeometry relative="1" as="geometry">
            <mxPoint x="6780" y="1130" as="sourcePoint" />
            <mxPoint x="6940" y="1130" as="targetPoint" />
          </mxGeometry>
        </mxCell>
        <mxCell id="VSbkhnIBNn_-im1Td6wS-113" value="" style="endArrow=none;html=1;rounded=0;entryX=0.5;entryY=1;entryDx=0;entryDy=0;exitX=0.5;exitY=0;exitDx=0;exitDy=0;" edge="1" parent="1" source="VSbkhnIBNn_-im1Td6wS-134" target="VSbkhnIBNn_-im1Td6wS-29">
          <mxGeometry relative="1" as="geometry">
            <mxPoint x="6860" y="1089.17" as="sourcePoint" />
            <mxPoint x="7020" y="1089.17" as="targetPoint" />
          </mxGeometry>
        </mxCell>
        <mxCell id="VSbkhnIBNn_-im1Td6wS-114" value="" style="endArrow=none;html=1;rounded=0;" edge="1" parent="1">
          <mxGeometry relative="1" as="geometry">
            <mxPoint x="6800" y="1150" as="sourcePoint" />
            <mxPoint x="6960" y="1150" as="targetPoint" />
          </mxGeometry>
        </mxCell>
        <mxCell id="VSbkhnIBNn_-im1Td6wS-115" value="" style="endArrow=none;html=1;rounded=0;" edge="1" parent="1">
          <mxGeometry relative="1" as="geometry">
            <mxPoint x="6810" y="1160" as="sourcePoint" />
            <mxPoint x="6970" y="1160" as="targetPoint" />
          </mxGeometry>
        </mxCell>
        <mxCell id="VSbkhnIBNn_-im1Td6wS-116" value="" style="endArrow=none;html=1;rounded=0;" edge="1" parent="1">
          <mxGeometry relative="1" as="geometry">
            <mxPoint x="6820" y="1170" as="sourcePoint" />
            <mxPoint x="6980" y="1170" as="targetPoint" />
          </mxGeometry>
        </mxCell>
        <mxCell id="VSbkhnIBNn_-im1Td6wS-117" value="" style="endArrow=none;html=1;rounded=0;" edge="1" parent="1">
          <mxGeometry relative="1" as="geometry">
            <mxPoint x="6830" y="1180" as="sourcePoint" />
            <mxPoint x="6990" y="1180" as="targetPoint" />
          </mxGeometry>
        </mxCell>
        <mxCell id="VSbkhnIBNn_-im1Td6wS-118" value="" style="endArrow=none;html=1;rounded=0;" edge="1" parent="1">
          <mxGeometry relative="1" as="geometry">
            <mxPoint x="6840" y="1190" as="sourcePoint" />
            <mxPoint x="7000" y="1190" as="targetPoint" />
          </mxGeometry>
        </mxCell>
        <mxCell id="VSbkhnIBNn_-im1Td6wS-119" value="" style="rounded=0;whiteSpace=wrap;html=1;" vertex="1" parent="1">
          <mxGeometry x="3865" y="1030" width="30" height="60" as="geometry" />
        </mxCell>
        <mxCell id="VSbkhnIBNn_-im1Td6wS-120" value="" style="rounded=0;whiteSpace=wrap;html=1;" vertex="1" parent="1">
          <mxGeometry x="595" y="1050" width="30" height="60" as="geometry" />
        </mxCell>
        <mxCell id="VSbkhnIBNn_-im1Td6wS-121" value="" style="rounded=0;whiteSpace=wrap;html=1;" vertex="1" parent="1">
          <mxGeometry x="2970" y="1030" width="30" height="60" as="geometry" />
        </mxCell>
        <mxCell id="VSbkhnIBNn_-im1Td6wS-122" value="" style="rounded=0;whiteSpace=wrap;html=1;" vertex="1" parent="1">
          <mxGeometry x="395" y="1050" width="30" height="60" as="geometry" />
        </mxCell>
        <mxCell id="VSbkhnIBNn_-im1Td6wS-123" value="" style="rounded=0;whiteSpace=wrap;html=1;" vertex="1" parent="1">
          <mxGeometry x="795" y="1050" width="30" height="60" as="geometry" />
        </mxCell>
        <mxCell id="VSbkhnIBNn_-im1Td6wS-124" value="" style="rounded=0;whiteSpace=wrap;html=1;" vertex="1" parent="1">
          <mxGeometry x="3380" y="1860" width="30" height="60" as="geometry" />
        </mxCell>
        <mxCell id="VSbkhnIBNn_-im1Td6wS-125" value="" style="rounded=0;whiteSpace=wrap;html=1;" vertex="1" parent="1">
          <mxGeometry x="3380" y="1950" width="30" height="60" as="geometry" />
        </mxCell>
        <mxCell id="VSbkhnIBNn_-im1Td6wS-126" value="" style="rounded=0;whiteSpace=wrap;html=1;" vertex="1" parent="1">
          <mxGeometry x="3380" y="1780" width="30" height="60" as="geometry" />
        </mxCell>
        <mxCell id="VSbkhnIBNn_-im1Td6wS-127" value="" style="rounded=0;whiteSpace=wrap;html=1;" vertex="1" parent="1">
          <mxGeometry x="3260" y="1890" width="30" height="60" as="geometry" />
        </mxCell>
        <mxCell id="VSbkhnIBNn_-im1Td6wS-128" value="" style="rounded=0;whiteSpace=wrap;html=1;" vertex="1" parent="1">
          <mxGeometry x="3250" y="1770" width="30" height="60" as="geometry" />
        </mxCell>
        <mxCell id="VSbkhnIBNn_-im1Td6wS-129" value="" style="rounded=0;whiteSpace=wrap;html=1;" vertex="1" parent="1">
          <mxGeometry x="5025" y="1030" width="30" height="60" as="geometry" />
        </mxCell>
        <mxCell id="VSbkhnIBNn_-im1Td6wS-130" value="" style="rounded=0;whiteSpace=wrap;html=1;" vertex="1" parent="1">
          <mxGeometry x="3320" y="1890" width="30" height="60" as="geometry" />
        </mxCell>
        <mxCell id="VSbkhnIBNn_-im1Td6wS-131" value="" style="rounded=0;whiteSpace=wrap;html=1;" vertex="1" parent="1">
          <mxGeometry x="3310" y="1770" width="30" height="60" as="geometry" />
        </mxCell>
        <mxCell id="VSbkhnIBNn_-im1Td6wS-132" value="" style="rounded=0;whiteSpace=wrap;html=1;" vertex="1" parent="1">
          <mxGeometry x="3320" y="1980" width="30" height="60" as="geometry" />
        </mxCell>
        <mxCell id="VSbkhnIBNn_-im1Td6wS-133" value="" style="rounded=0;whiteSpace=wrap;html=1;" vertex="1" parent="1">
          <mxGeometry x="3260" y="1970" width="30" height="60" as="geometry" />
        </mxCell>
        <mxCell id="VSbkhnIBNn_-im1Td6wS-134" value="" style="rounded=0;whiteSpace=wrap;html=1;" vertex="1" parent="1">
          <mxGeometry x="7115" y="1070" width="30" height="60" as="geometry" />
        </mxCell>
        <mxCell id="VSbkhnIBNn_-im1Td6wS-135" value="" style="rounded=0;whiteSpace=wrap;html=1;" vertex="1" parent="1">
          <mxGeometry x="3480" y="1950" width="30" height="60" as="geometry" />
        </mxCell>
        <mxCell id="VSbkhnIBNn_-im1Td6wS-136" value="" style="rounded=0;whiteSpace=wrap;html=1;" vertex="1" parent="1">
          <mxGeometry x="3680" y="1950" width="30" height="60" as="geometry" />
        </mxCell>
        <mxCell id="VSbkhnIBNn_-im1Td6wS-137" value="" style="rounded=0;whiteSpace=wrap;html=1;" vertex="1" parent="1">
          <mxGeometry x="6275" y="1030" width="30" height="60" as="geometry" />
        </mxCell>
        <mxCell id="VSbkhnIBNn_-im1Td6wS-138" value="" style="rounded=0;whiteSpace=wrap;html=1;" vertex="1" parent="1">
          <mxGeometry x="5855" y="1160" width="30" height="60" as="geometry" />
        </mxCell>
        <mxCell id="VSbkhnIBNn_-im1Td6wS-139" value="" style="rounded=0;whiteSpace=wrap;html=1;" vertex="1" parent="1">
          <mxGeometry x="4545" y="1030" width="30" height="60" as="geometry" />
        </mxCell>
        <mxCell id="VSbkhnIBNn_-im1Td6wS-140" value="" style="rounded=0;whiteSpace=wrap;html=1;" vertex="1" parent="1">
          <mxGeometry x="4325" y="1030" width="30" height="60" as="geometry" />
        </mxCell>
        <mxCell id="VSbkhnIBNn_-im1Td6wS-141" value="" style="rounded=0;whiteSpace=wrap;html=1;" vertex="1" parent="1">
          <mxGeometry x="6105" y="1160" width="30" height="60" as="geometry" />
        </mxCell>
        <mxCell id="VSbkhnIBNn_-im1Td6wS-142" value="" style="rounded=0;whiteSpace=wrap;html=1;" vertex="1" parent="1">
          <mxGeometry x="3620" y="1980" width="30" height="60" as="geometry" />
        </mxCell>
        <mxCell id="VSbkhnIBNn_-im1Td6wS-143" value="" style="rounded=0;whiteSpace=wrap;html=1;" vertex="1" parent="1">
          <mxGeometry x="3560" y="1970" width="30" height="60" as="geometry" />
        </mxCell>
        <mxCell id="VSbkhnIBNn_-im1Td6wS-144" value="&lt;font style=&quot;font-size: 14px;&quot;&gt;LOGÓkód&lt;/font&gt;" style="shape=rhombus;perimeter=rhombusPerimeter;whiteSpace=wrap;html=1;align=center;" vertex="1" parent="1">
          <mxGeometry x="940" y="930" width="90" height="80" as="geometry" />
        </mxCell>
        <mxCell id="VSbkhnIBNn_-im1Td6wS-145" value="&lt;font style=&quot;font-size: 14px;&quot;&gt;CSOPkód&lt;/font&gt;" style="shape=rhombus;perimeter=rhombusPerimeter;whiteSpace=wrap;html=1;align=center;" vertex="1" parent="1">
          <mxGeometry x="1065" y="930" width="90" height="80" as="geometry" />
        </mxCell>
        <mxCell id="VSbkhnIBNn_-im1Td6wS-146" value="" style="endArrow=none;html=1;rounded=0;dashed=1;exitX=0.155;exitY=0.633;exitDx=0;exitDy=0;exitPerimeter=0;" edge="1" parent="1" source="VSbkhnIBNn_-im1Td6wS-145">
          <mxGeometry relative="1" as="geometry">
            <mxPoint x="1100" y="979.81" as="sourcePoint" />
            <mxPoint x="1145" y="980" as="targetPoint" />
          </mxGeometry>
        </mxCell>
        <mxCell id="VSbkhnIBNn_-im1Td6wS-147" value="" style="endArrow=none;html=1;rounded=0;dashed=1;exitX=0.121;exitY=0.599;exitDx=0;exitDy=0;exitPerimeter=0;entryX=0.891;entryY=0.596;entryDx=0;entryDy=0;entryPerimeter=0;" edge="1" parent="1" source="VSbkhnIBNn_-im1Td6wS-144" target="VSbkhnIBNn_-im1Td6wS-144">
          <mxGeometry relative="1" as="geometry">
            <mxPoint x="967" y="986" as="sourcePoint" />
            <mxPoint x="1033" y="985" as="targetPoint" />
          </mxGeometry>
        </mxCell>
        <mxCell id="VSbkhnIBNn_-im1Td6wS-148" value="&lt;font style=&quot;font-size: 14px;&quot;&gt;Csapat2&lt;/font&gt;" style="shape=rhombus;perimeter=rhombusPerimeter;whiteSpace=wrap;html=1;align=center;" vertex="1" parent="1">
          <mxGeometry x="5305" y="930" width="90" height="80" as="geometry" />
        </mxCell>
        <mxCell id="VSbkhnIBNn_-im1Td6wS-149" value="" style="endArrow=none;html=1;rounded=0;dashed=1;exitX=0.155;exitY=0.633;exitDx=0;exitDy=0;exitPerimeter=0;" edge="1" parent="1" source="VSbkhnIBNn_-im1Td6wS-148">
          <mxGeometry relative="1" as="geometry">
            <mxPoint x="5340" y="979.81" as="sourcePoint" />
            <mxPoint x="5385" y="980" as="targetPoint" />
          </mxGeometry>
        </mxCell>
        <mxCell id="VSbkhnIBNn_-im1Td6wS-150" value="&lt;font style=&quot;font-size: 14px;&quot;&gt;Csapat1&lt;/font&gt;" style="shape=rhombus;perimeter=rhombusPerimeter;whiteSpace=wrap;html=1;align=center;" vertex="1" parent="1">
          <mxGeometry x="5180" y="930" width="90" height="80" as="geometry" />
        </mxCell>
        <mxCell id="VSbkhnIBNn_-im1Td6wS-151" value="" style="endArrow=none;html=1;rounded=0;dashed=1;exitX=0.155;exitY=0.633;exitDx=0;exitDy=0;exitPerimeter=0;" edge="1" parent="1" source="VSbkhnIBNn_-im1Td6wS-150">
          <mxGeometry relative="1" as="geometry">
            <mxPoint x="5215" y="979.81" as="sourcePoint" />
            <mxPoint x="5260" y="980" as="targetPoint" />
          </mxGeometry>
        </mxCell>
        <mxCell id="VSbkhnIBNn_-im1Td6wS-152" value="&lt;font style=&quot;font-size: 14px;&quot;&gt;Tkód&lt;/font&gt;" style="shape=rhombus;perimeter=rhombusPerimeter;whiteSpace=wrap;html=1;align=center;" vertex="1" parent="1">
          <mxGeometry x="4820" y="930" width="90" height="80" as="geometry" />
        </mxCell>
        <mxCell id="VSbkhnIBNn_-im1Td6wS-153" value="" style="endArrow=none;html=1;rounded=0;dashed=1;" edge="1" parent="1">
          <mxGeometry relative="1" as="geometry">
            <mxPoint x="4845" y="979.81" as="sourcePoint" />
            <mxPoint x="4885" y="979.81" as="targetPoint" />
          </mxGeometry>
        </mxCell>
        <mxCell id="VSbkhnIBNn_-im1Td6wS-154" value="&lt;font style=&quot;font-size: 14px;&quot;&gt;Hkód&lt;/font&gt;" style="shape=rhombus;perimeter=rhombusPerimeter;whiteSpace=wrap;html=1;align=center;" vertex="1" parent="1">
          <mxGeometry x="4710" y="930" width="90" height="80" as="geometry" />
        </mxCell>
        <mxCell id="VSbkhnIBNn_-im1Td6wS-155" value="" style="endArrow=none;html=1;rounded=0;dashed=1;" edge="1" parent="1">
          <mxGeometry relative="1" as="geometry">
            <mxPoint x="4735" y="979.81" as="sourcePoint" />
            <mxPoint x="4775" y="979.81" as="targetPoint" />
          </mxGeometry>
        </mxCell>
        <mxCell id="VSbkhnIBNn_-im1Td6wS-156" value="&lt;span style=&quot;font-size: 14px;&quot;&gt;Győztes&lt;/span&gt;" style="shape=rhombus;perimeter=rhombusPerimeter;whiteSpace=wrap;html=1;align=center;" vertex="1" parent="1">
          <mxGeometry x="5430" y="930" width="90" height="80" as="geometry" />
        </mxCell>
        <mxCell id="VSbkhnIBNn_-im1Td6wS-157" value="" style="endArrow=none;html=1;rounded=0;dashed=1;exitX=0.155;exitY=0.633;exitDx=0;exitDy=0;exitPerimeter=0;" edge="1" parent="1" source="VSbkhnIBNn_-im1Td6wS-156">
          <mxGeometry relative="1" as="geometry">
            <mxPoint x="5465" y="979.81" as="sourcePoint" />
            <mxPoint x="5510" y="980" as="targetPoint" />
          </mxGeometry>
        </mxCell>
      </root>
    </mxGraphModel>
  </diagram>
</mxfile>
